<?xml version="1.0" standalone="no"?>
<!DOCTYPE svg PUBLIC "-//W3C//DTD SVG 1.1//EN" "http://www.w3.org/Graphics/SVG/1.1/DTD/svg11.dtd">
<svg xmlns="http://www.w3.org/2000/svg">
<defs >
<font id="BalooBhai2" horiz-adv-x="541" ><font-face
    font-family="Baloo Bhai 2 Medium"
    units-per-em="1000"
    panose-1="0 0 0 0 0 0 0 0 0 0"
    ascent="1078"
    descent="-544"
    alphabetic="0" />
<glyph unicode=" " horiz-adv-x="200" />
<glyph unicode="!" horiz-adv-x="261" d="M181 576Q181 548 181 502T178 401T174 293T168 197Q161 193 150 190T128 186Q110 186 99 193T85 216Q83 243 81 292T77 399T74 514T73 612Q100 627 130 627Q155 627 168 615T181 576ZM63 52Q63 80 80 98T128 117Q159
117 176 99T194 52Q194 24 177 6T128 -13Q98 -13 81 5T63 52Z" />
<glyph unicode="&quot;" horiz-adv-x="303" d="M114 409Q106 405 97 404T77 402Q60 402 49 409T37 434L30 614Q50 627 78 627Q101 627 112 617T124 583Q124 566 123 534T119 467T114 409ZM263 409Q255 405 246 404T225 402Q207 402 197 409T186 434L178 614Q188
620 200 623T227 627Q250 627 261 617T273 583Q273 566 271 534T268 467T263 409Z" />
<glyph unicode="#" horiz-adv-x="678" d="M574 154H49Q46 161 43 170T40 191Q40 212 50 222T79 232H605Q608 225 610 215T613 194Q613 174 603 164T574 154ZM603 387H78Q75 394 72 403T68 424Q68 445 79 454T108 464H634Q637 457 640 448T643 427Q643 406 633
397T603 387ZM315 512L207 -3Q200 -4 192 -4T176 -5Q155 -5 143 4T130 36Q130 49 134 67T141 97L250 612Q257 613 265 613T280 614Q301 614 314 605T327 574Q327 560 323 543T315 512ZM537 512L428 -3Q421 -4 414 -4T398 -5Q377 -5 365 4T352 36Q352 49 355 67T362
97L471 612Q478 613 486 613T502 614Q523 614 535 605T548 574Q548 560 544 543T537 512Z" />
<glyph unicode="$" horiz-adv-x="532" d="M217 35H309V-88Q303 -90 293 -92T268 -94Q244 -94 231 -84T217 -52V35ZM309 556H217V697Q224 699 235 700T258 702Q284 702 296 692T309 660V556ZM257 71Q319 71 350 98T381 167Q381 203 357 226T283 264L207 287Q161
302 127 323T74 376T55 453Q55 531 113 576T271 622Q326 622 369 611T437 580T462 538Q462 522 454 510T433 489Q409 508 368 522T278 536Q223 536 192 514T161 453Q161 422 183 403T253 370L312 352Q394 328 441 285T488 166Q488 86 428 36T258 -14Q197 -14 151
-1T78 34T52 80Q52 100 64 113T91 134Q115 112 157 92T257 71Z" />
<glyph unicode="%" horiz-adv-x="778" d="M339 470Q339 403 297 364T193 324Q131 324 89 363T47 470Q47 537 89 576T193 616Q255 616 297 577T339 470ZM130 470Q130 433 147 414T193 394Q221 394 238 413T256 470Q256 507 239 526T193 546Q165 546 148 527T130
470ZM188 77L551 616Q577 613 593 603T610 577Q610 566 605 555T591 531L229 -7Q203 -5 187 6T170 33Q170 43 175 53T188 77ZM731 139Q731 71 689 32T585 -8Q524 -8 482 31T440 139Q440 206 482 245T585 284Q647 284 689 245T731 139ZM522 139Q522 101 540 81T585
61Q613 61 630 81T648 139Q648 175 631 194T585 214Q558 214 540 195T522 139Z" />
<glyph unicode="&amp;" horiz-adv-x="645" d="M520 105L482 66Q446 28 395 7T279 -15Q208 -15 156 10T76 80T47 187Q47 237 67 275T121 339T197 376L243 308Q218 302 196 287T160 247T146 188Q146 134 182 101T282 67Q315 67 353 81T425 132L454 175Q470 208 479
255T488 359Q499 364 510 366T532 369Q559 369 570 354T581 313Q581 261 565 205T520 105ZM565 -14Q541 -14 516 13L216 323L191 355Q158 389 145 419T131 481Q131 523 150 554T206 603T296 621Q352 621 379 605T406 562Q406 549 400 538T384 520Q369 528 349 533T308
539Q273 539 252 522T231 475Q231 448 246 427T289 376L618 39Q616 15 602 1T565 -14Z" />
<glyph unicode="&apos;" horiz-adv-x="158" d="M118 410Q111 407 101 405T78 402Q60 402 49 410T37 435L30 613Q39 620 51 623T80 627Q104 627 116 617T128 582Q128 564 127 533T123 468T118 410Z" />
<glyph unicode="(" horiz-adv-x="266" d="M208 -121Q187 -121 171 -106T139 -68Q98 -6 75 78T52 272Q52 381 78 467T139 607Q153 631 170 645T208 660Q226 660 238 650T258 627Q205 557 177 469T148 272Q148 163 174 78T258 -87Q251 -101 239 -111T208 -121Z" />
<glyph unicode=")" horiz-adv-x="266" d="M58 -121Q41 -121 28 -111T8 -87Q66 -8 92 77T118 272Q118 381 90 469T8 627Q15 640 28 650T58 660Q80 660 96 646T128 607Q163 553 188 467T214 272Q214 162 192 78T128 -68Q113 -91 97 -106T58 -121Z" />
<glyph unicode="*" horiz-adv-x="311" d="M148 538L173 468L24 515Q20 528 20 540Q20 557 30 567T56 577Q61 577 67 575T80 571L148 538ZM195 507L109 381Q105 380 102 380T94 380Q72 380 61 389T49 414Q49 423 53 431T64 446L111 500L195 507ZM138 483L173 537L270
415Q266 400 255 390T228 380Q214 380 205 389T187 411L138 483ZM128 516L261 586Q272 582 281 571T290 546Q290 531 282 524T260 512L181 475L128 516ZM187 518L125 485L121 638Q127 641 136 645T158 649Q173 649 183 642T193 618Q193 612 192 592T189 550T187
518Z" />
<glyph unicode="+" horiz-adv-x="547" d="M460 256H55Q51 264 49 273T46 295Q46 317 57 327T87 338H492Q495 331 498 321T501 298Q501 277 490 267T460 256ZM321 482V67Q313 65 302 63T278 60Q254 60 242 70T229 107V522Q238 525 249 527T274 529Q298 529 309
519T321 482Z" />
<glyph unicode="," horiz-adv-x="168" d="M87 -89Q67 -120 37 -120Q10 -120 -8 -101Q3 -71 14 -34T35 42T50 109Q61 114 73 117T100 121Q122 121 135 111T148 77Q148 54 138 21T113 -42T87 -89Z" />
<glyph unicode="-" horiz-adv-x="381" d="M291 218H58Q54 226 51 236T48 258Q48 280 59 290T89 301H323Q326 294 329 284T332 261Q332 240 322 229T291 218Z" />
<glyph unicode="." horiz-adv-x="164" d="M17 51Q17 79 34 98T82 117Q113 117 129 98T146 51Q146 24 130 5T82 -14Q52 -14 35 5T17 51Z" />
<glyph unicode="/" horiz-adv-x="314" d="M284 599L101 -105Q93 -106 86 -106T69 -107Q45 -107 32 -96T19 -62Q19 -47 24 -29T32 0L214 705Q223 706 230 706T246 707Q269 707 282 697T296 663Q296 648 292 632T284 599Z" />
<glyph unicode="0" horiz-adv-x="588" d="M294 -14Q222 -14 167 21T81 126T50 304Q50 416 84 485T173 588T294 621Q360 621 415 588T505 485T539 304Q539 198 508 128T422 22T294 -14ZM294 70Q361 70 398 130T436 304Q436 386 417 437T366 513T294 537Q254 537
222 513T171 436T152 304Q152 190 189 130T294 70Z" />
<glyph unicode="1" horiz-adv-x="365" d="M271 202H169V510L47 457Q34 463 24 475T14 506Q14 542 59 559L192 615H215Q241 615 256 600T271 559V202ZM169 264H271V-1Q264 -3 252 -5T224 -8Q196 -8 183 3T169 39V264Z" />
<glyph unicode="2" horiz-adv-x="511" d="M58 539Q58 561 80 579T142 609T230 621Q298 621 345 599T418 537T444 444Q444 389 414 337T313 222L157 82H441Q445 76 449 66T453 42Q453 21 443 11T415 0H64Q51 9 44 22T37 53Q37 73 45 88T66 115L236 275Q296 330
318 366T340 441Q340 483 311 510T221 537Q178 537 145 523T88 492Q76 498 67 510T58 539Z" />
<glyph unicode="3" horiz-adv-x="509" d="M221 621Q320 621 379 579T438 453Q438 415 423 388T386 343T345 320Q372 311 397 292T438 243T455 170Q455 110 426 70T344 9T224 -12Q165 -12 122 0T54 31T30 72Q30 90 39 102T62 122Q86 104 122 88T218 72Q280 72 317
98T355 175Q355 221 321 248T221 275H135Q131 282 128 293T124 316Q124 330 127 341T135 358H216Q281 358 309 382T337 448Q337 491 304 514T213 538Q167 538 132 525T73 495Q62 501 53 513T44 542Q44 564 67 582T130 610T221 621Z" />
<glyph unicode="4" horiz-adv-x="561" d="M37 240L313 607Q325 610 339 612T365 614Q383 614 399 609T425 592T436 555V225H531Q534 218 538 208T542 184Q542 163 532 152T504 141H436V-1Q430 -3 417 -5T391 -8Q365 -8 351 1T337 35V141H60Q47 148 38 163T28 199Q28
210 30 220T37 240ZM340 225L341 510H339L140 225H340Z" />
<glyph unicode="5" horiz-adv-x="534" d="M213 608L187 539L172 364Q189 372 217 379T278 387Q340 387 387 364T462 296T489 190Q489 133 463 87T385 13T256 -14Q198 -14 155 -1T87 32T62 75Q62 94 74 107T99 127Q122 107 160 88T253 69Q317 69 351 103T385 190Q385
244 351 274T258 305Q225 305 199 295T148 272Q116 274 97 291T77 337Q77 342 77 350T79 369L95 551Q97 577 111 592T151 608H213ZM165 524V608H453Q457 602 460 592T464 568Q464 547 454 536T426 524H165Z" />
<glyph unicode="6" horiz-adv-x="552" d="M462 555Q462 541 455 528T436 509Q413 520 385 528T327 536Q253 536 205 486T151 331Q171 350 210 369T305 389Q394 389 450 339T507 190Q507 129 481 83T405 12T288 -14Q218 -14 165 18T81 116T50 286Q50 377 72 441T132
544T218 602T320 621Q360 621 392 613T443 591T462 555ZM288 69Q340 69 372 101T405 191Q405 249 372 278T289 307Q243 307 207 287T151 239L153 238Q153 161 189 115T288 69Z" />
<glyph unicode="7" horiz-adv-x="464" d="M61 608H418Q430 601 438 589T446 559Q446 547 444 536T435 511L194 -5Q186 -6 179 -6T164 -6Q139 -6 122 5T105 40Q105 54 111 68T126 102L333 524H34Q30 530 27 541T23 564Q23 586 33 597T61 608Z" />
<glyph unicode="8" horiz-adv-x="567" d="M284 -14Q215 -14 163 7T81 67T52 163Q52 212 75 247T134 303T208 331L270 344Q335 357 368 382T401 450Q401 492 370 516T284 540Q232 540 200 516T168 451Q168 417 186 396T236 364T304 349L361 328Q400 320 435 300T493
246T516 161Q516 107 487 68T405 7T284 -14ZM284 67Q343 67 379 92T415 167Q415 219 369 250T246 287L197 307Q138 323 103 359T68 454Q68 506 95 543T171 600T284 621Q385 621 443 576T501 452Q501 390 462 355T364 307L290 288Q227 278 191 247T154 166Q154 119
189 93T284 67Z" />
<glyph unicode="9" horiz-adv-x="553" d="M79 55Q79 69 86 82T104 101Q125 90 155 81T223 71Q274 71 314 91T378 157T402 274Q392 264 372 251T324 229T258 220Q201 220 153 240T76 303T47 416Q47 477 74 523T151 595T264 621Q335 621 389 589T473 490T504 322Q504
203 470 129T374 20T231 -14Q166 -14 123 3T79 55ZM275 301Q319 301 353 322T401 371V365Q401 446 365 492T264 538Q214 538 181 506T148 418Q148 357 185 329T275 301Z" />
<glyph unicode=":" horiz-adv-x="205" d="M40 393Q40 421 57 440T104 459Q134 459 151 440T169 393Q169 365 152 347T104 328Q74 328 57 346T40 393ZM38 51Q38 79 55 98T102 117Q132 117 149 98T167 51Q167 24 150 5T102 -14Q72 -14 55 5T38 51Z" />
<glyph unicode=";" horiz-adv-x="217" d="M44 393Q44 421 61 440T108 459Q138 459 155 440T173 393Q173 365 156 347T108 328Q78 328 61 346T44 393ZM106 -89Q86 -120 57 -120Q29 -120 11 -101Q22 -71 33 -34T54 42T70 109Q80 114 93 117T120 121Q141 121 154
111T167 77Q167 54 157 21T132 -42T106 -89Z" />
<glyph unicode="&lt;" horiz-adv-x="477" d="M146 295L444 144Q445 139 445 134T445 123Q445 104 434 90T399 76Q389 76 378 80T351 93L62 248Q48 268 48 295Q48 316 55 329T72 348L398 514Q423 506 433 493T443 465Q443 444 432 432T399 408L146 295Z" />
<glyph unicode="=" horiz-adv-x="516" d="M427 356H56Q52 363 50 373T47 395Q47 416 58 426T88 437H460Q463 430 466 420T469 398Q469 377 458 367T427 356ZM427 152H56Q52 159 50 169T47 191Q47 213 58 223T88 234H460Q463 227 466 217T469 194Q469 173 458 163T427
152Z" />
<glyph unicode="&gt;" horiz-adv-x="467" d="M323 299L33 447Q32 452 32 457T32 467Q32 486 43 500T77 515Q88 515 100 510T126 498L407 344Q421 324 421 296Q421 275 415 263T397 244L80 78Q55 85 45 98T35 127Q35 148 46 160T79 183L323 299Z" />
<glyph unicode="?" horiz-adv-x="468" d="M219 225L120 202Q109 212 102 225T94 257Q94 275 104 285T136 301L208 320Q264 335 294 363T324 438Q324 479 294 509T196 540Q156 540 117 528T54 497Q41 506 34 519T26 548Q26 582 76 605T204 628Q273 628 324 604T402
537T430 439Q430 354 378 303T219 225ZM104 53Q104 81 122 99T169 118Q199 118 217 100T235 53Q235 25 217 7T169 -12Q140 -12 122 6T104 53Z" />
<glyph unicode="@" horiz-adv-x="1016" d="M403 200Q403 141 432 111T513 81Q547 81 573 96T623 142L642 54Q620 31 585 16T497 0Q410 0 356 52T301 199Q301 272 330 324T413 404T536 432Q577 432 611 423T670 400Q711 378 711 346Q711 340 711 333T709 319L682
58H586L613 333Q599 341 579 345T532 350Q475 350 439 311T403 200ZM616 35Q619 52 627 67T646 91T673 100Q683 92 699 84T737 76Q797 76 828 130T860 269Q860 360 819 429T703 536T527 575Q414 575 330 528T199 398T152 204Q152 99 195 22T314 -98T491 -141Q531
-141 560 -137T609 -127Q616 -135 619 -144T623 -164Q623 -182 611 -195T568 -215T484 -222Q412 -222 347 -204T228 -151T135 -64T75 55T54 204Q54 306 88 389T184 531T333 623T526 655Q625 655 705 628T841 549T928 427T958 268Q958 138 902 67T737 -5Q706 -5
674 5T616 35Z" />
<glyph unicode="A" horiz-adv-x="600" d="M303 525H299Q285 486 267 434T230 327T193 221L184 183Q178 164 170 139T154 88T137 38T124 -1Q116 -5 107 -7T83 -9Q59 -9 44 2T28 34Q28 45 31 55T39 79Q50 112 67 161T105 269T148 387T190 501T228 598Q238 603 258
608T300 614Q327 614 350 606T380 579Q402 523 428 451T480 300T531 148T574 14Q566 4 552 -2T519 -8Q492 -8 480 2T461 36L413 183L402 228Q384 284 366 340T331 444T303 525ZM136 154L173 237H438L455 154H136Z" />
<glyph unicode="B" horiz-adv-x="604" d="M410 354V275H152V354H410ZM308 275L333 335Q406 335 454 314T526 255T551 170Q551 78 484 33T291 -12Q265 -12 237 -11T181 -5T128 7Q83 21 83 59V560Q83 578 92 587T119 602Q153 612 194 616T282 620Q398 620 462 579T527
453Q527 409 505 374T434 319T309 299L301 354Q362 354 392 378T423 448Q423 493 388 515T282 538Q253 538 229 536T185 530V81Q206 76 235 74T294 71Q367 71 406 96T445 174Q445 221 411 248T308 275Z" />
<glyph unicode="C" horiz-adv-x="584" d="M535 536Q535 520 526 508T503 488Q478 506 444 521T358 536Q299 536 254 510T182 431T156 303Q156 188 213 130T362 72Q412 72 448 86T510 118Q522 112 531 99T540 69Q540 56 533 45T509 23Q487 9 449 -2T352 -14Q267
-14 199 21T90 126T50 303Q50 408 90 479T199 586T347 622Q404 622 446 610T511 577T535 536Z" />
<glyph unicode="D" horiz-adv-x="655" d="M500 309Q500 192 444 133T282 73Q257 73 232 75T186 82V528Q205 531 227 533T276 535Q339 535 389 512T470 439T500 309ZM606 309Q606 414 564 482T448 585T274 620Q235 620 194 617T119 602Q102 597 93 588T83 561V58Q83
21 128 6Q165 -6 208 -9T283 -12Q381 -12 453 23T566 129T606 309Z" />
<glyph unicode="E" horiz-adv-x="535" d="M83 384H185V8Q180 6 167 3T139 -1Q113 -1 98 14T83 55V384ZM185 228H83V552Q83 577 98 592T139 608Q153 608 166 605T185 599V228ZM139 269V353H440Q444 347 447 337T451 313Q451 292 441 281T413 269H139ZM139 -1V84H475Q479
78 482 68T486 43Q486 22 477 11T448 -1H139ZM139 523V608H470Q474 602 478 591T482 568Q482 547 472 535T444 523H139Z" />
<glyph unicode="F" horiz-adv-x="520" d="M186 247L83 248V552Q83 577 98 592T139 608Q153 608 166 605T186 599V247ZM138 251V336H436Q440 330 444 320T448 296Q448 275 438 263T410 251H138ZM139 522V608H471Q475 602 478 591T482 567Q482 546 472 534T444 522H139ZM83
341H187V1Q181 0 168 -3T140 -6Q111 -6 97 5T83 41V341Z" />
<glyph unicode="G" horiz-adv-x="645" d="M580 291V76Q580 55 570 42T537 18Q512 4 466 -5T372 -14Q279 -14 206 19T91 123T50 303Q50 409 92 480T206 586T363 622Q421 622 465 610T533 578T557 536Q557 520 548 508T527 488Q500 506 463 521T370 536Q309 536
261 510T184 431T156 303Q156 223 184 172T262 97T374 72Q407 72 435 77T479 91V254H338Q335 260 332 271T328 294Q328 316 338 327T365 338H533Q553 338 566 325T580 291Z" />
<glyph unicode="H" horiz-adv-x="658" d="M83 381H187V2Q180 0 167 -3T139 -6Q110 -6 97 5T83 42V381ZM187 275H83V606Q90 608 103 611T131 614Q160 614 173 604T187 566V275ZM471 381H575V2Q568 0 555 -3T527 -6Q498 -6 485 5T471 42V381ZM575 275H471V606Q478
608 491 611T519 614Q548 614 561 603T575 566V275ZM528 265H138V349H528V265Z" />
<glyph unicode="I" horiz-adv-x="272" d="M84 382H187V2Q181 0 168 -3T140 -6Q111 -6 98 5T84 42V382ZM187 276H84V606Q91 608 104 611T132 614Q161 614 174 604T187 566V276Z" />
<glyph unicode="J" horiz-adv-x="391" d="M206 289H309V156Q309 96 286 59T225 5T138 -12Q82 -12 53 3T24 46Q24 62 30 73T42 90Q57 84 77 79T117 74Q161 74 183 95T206 164V289ZM309 253H206V606Q212 608 225 611T253 614Q282 614 295 604T309 566V253Z" />
<glyph unicode="K" horiz-adv-x="578" d="M153 314L249 348Q348 250 421 173T544 50Q543 23 527 8T488 -8Q466 -8 450 4T416 34L153 314ZM257 278L142 288L446 612Q482 611 499 596T516 560Q516 544 508 530T483 500L257 278ZM83 385H187V1Q180 -1 167 -3T139
-6Q110 -6 97 5T83 41V385ZM187 279H83V606Q90 608 103 611T131 614Q160 614 173 604T187 566V279Z" />
<glyph unicode="L" horiz-adv-x="504" d="M83 375H187V8L139 -1Q114 -1 99 14T83 55V375ZM139 -1V86H461Q466 80 469 69T473 45Q473 23 463 11T434 -1H139ZM187 275H83V606Q90 608 103 611T131 614Q160 614 173 604T187 566V275Z" />
<glyph unicode="M" horiz-adv-x="784" d="M447 156Q438 150 425 145T394 140Q373 140 358 146T337 166Q290 272 256 356T201 496H197Q194 425 191 364T184 246T178 129T171 1Q163 -2 151 -4T125 -6Q98 -6 86 4T73 36Q73 51 75 94T80 199T89 328T99 464T109 586Q117
595 134 603T178 611Q208 611 227 600T257 566Q280 519 303 463T348 351T391 246H395Q435 346 474 440T540 599Q551 604 567 607T599 611Q628 611 645 602T668 573Q672 555 676 514T686 419T696 304T705 186T712 81T717 7Q706 0 694 -3T665 -6Q645 -6 630 2T613
35Q607 127 603 214T595 373T588 494H584Q565 442 532 362T447 156Z" />
<glyph unicode="N" horiz-adv-x="664" d="M83 506L173 511Q177 476 180 434T184 350T185 268V2Q179 0 166 -3T138 -6Q110 -6 97 5T83 41V506ZM581 102L490 98Q481 178 480 259T479 415V607Q486 609 499 611T526 614Q555 614 568 604T581 568V102ZM581 138V170V13Q571
5 554 0T515 -6Q488 -6 468 3T431 42L263 335Q249 360 233 389T203 446T180 493L83 470V591Q93 602 111 608T149 614Q176 614 197 604T234 566L403 273Q418 248 433 219T462 162T484 115L581 138Z" />
<glyph unicode="O" horiz-adv-x="692" d="M642 304Q642 200 603 129T498 22T346 -14Q262 -14 195 22T89 129T50 304Q50 408 89 478T196 585T346 622Q429 622 496 586T602 479T642 304ZM536 304Q536 416 484 476T346 536Q260 536 208 476T156 304Q156 192 207 132T346
72Q433 72 484 132T536 304Z" />
<glyph unicode="P" horiz-adv-x="570" d="M83 210V560Q83 578 92 587T119 602Q149 611 191 615T273 620Q402 620 464 565T526 417Q526 354 499 308T416 236T278 210H83ZM139 -6Q110 -6 97 5T83 42V258H187V2Q180 0 167 -3T139 -6ZM186 294H272Q343 294 382 324T422
416Q422 477 384 506T275 535Q250 535 228 533T186 527V294Z" />
<glyph unicode="Q" horiz-adv-x="694" d="M331 1L433 27Q488 -4 527 -23T600 -55T669 -80Q671 -87 671 -91T671 -100Q671 -128 655 -143T612 -158Q576 -158 525 -131T412 -58L331 1ZM642 304Q642 200 603 130T498 23T346 -14Q262 -14 195 22T89 129T50 304Q50
408 89 479T196 586T346 622Q429 622 496 586T602 479T642 304ZM536 304Q536 416 484 476T346 536Q260 536 208 476T156 304Q156 192 207 132T346 72Q433 72 484 132T536 304Z" />
<glyph unicode="R" horiz-adv-x="594" d="M186 305H286Q352 305 390 334T429 421Q429 477 390 506T275 535Q251 535 228 533T186 527V305ZM290 222H83V560Q83 578 92 587T119 602Q149 611 192 615T278 620Q406 620 469 567T533 421Q533 362 505 317T422 247T290
222ZM283 251L366 282Q393 248 421 212T475 142T522 81T555 38Q550 17 533 5T498 -8Q475 -8 461 3T434 34L283 251ZM83 255H187V2Q180 0 167 -3T139 -6Q110 -6 97 5T83 42V255Z" />
<glyph unicode="S" horiz-adv-x="530" d="M256 71Q318 71 349 98T381 167Q381 203 357 226T282 264L206 287Q160 302 126 323T74 376T55 453Q55 531 113 576T270 622Q325 622 368 611T436 580T461 538Q461 522 453 510T432 489Q408 508 367 522T277 536Q222 536
191 514T160 453Q160 422 182 403T252 370L311 352Q393 328 440 285T487 166Q487 86 427 36T257 -14Q196 -14 150 -1T77 34T51 80Q51 100 63 113T90 134Q114 112 156 92T256 71Z" />
<glyph unicode="T" horiz-adv-x="531" d="M243 522L239 608H496Q500 602 503 591T507 567Q507 546 497 534T469 522H243ZM288 608L292 522H34Q31 528 27 539T23 563Q23 585 33 596T61 608H288ZM213 549H316V2Q310 0 297 -3T269 -6Q240 -6 227 5T213 42V549Z" />
<glyph unicode="U" horiz-adv-x="653" d="M326 -14Q249 -14 194 14T111 93T82 213V290H185V219Q185 147 225 110T326 72Q386 72 426 109T467 219V290H571V213Q571 145 542 94T459 14T326 -14ZM185 252H82V606Q89 608 102 611T130 614Q159 614 172 604T185 566V252ZM571
252H467V606Q473 608 487 611T515 614Q543 614 557 604T571 566V252Z" />
<glyph unicode="V" horiz-adv-x="595" d="M366 11Q359 5 342 0T302 -6Q278 -6 260 1T235 22Q219 52 198 102T153 216T106 345T62 475T28 587Q36 597 51 605T85 613Q108 613 120 603T140 568Q180 446 218 331T301 97H306Q332 170 360 254T416 427T465 603Q474 608
485 610T511 613Q533 613 547 602T562 569Q562 552 552 511T523 415T483 298T439 180T398 78T366 11Z" />
<glyph unicode="W" horiz-adv-x="817" d="M356 457Q364 461 379 465T409 469Q435 469 451 461T473 438Q496 370 514 312T549 201T583 89H588Q605 177 620 259T651 425T679 603Q698 613 723 613Q747 613 761 603T776 571Q776 551 771 512T757 422T736 314T711 201T684
97T658 14Q648 7 629 2T588 -4Q560 -4 541 4T516 27Q504 60 487 112T450 225T413 349Q396 288 377 224T340 104T308 13Q299 7 281 2T240 -4Q213 -4 194 4T167 27Q157 51 143 100T114 212T83 344T56 476T36 590Q44 599 59 606T92 613Q115 613 128 603T146 568Q160
496 171 435T194 317T216 206T242 89H246Q259 133 270 172T295 253T322 343T356 457Z" />
<glyph unicode="X" horiz-adv-x="593" d="M263 283L243 289L43 564Q49 584 64 599T105 614Q124 614 137 603T166 571L319 349L347 327L552 41Q548 20 533 7T492 -7Q474 -7 461 2T433 34L263 283ZM345 291L317 269L123 -5Q118 -6 112 -6T101 -7Q73 -7 57 6T41 39Q41
56 49 70T70 100L244 327L283 360L460 609Q466 610 473 611T488 612Q514 612 528 600T543 568Q543 553 536 540T516 511Q475 456 433 402T345 291Z" />
<glyph unicode="Y" horiz-adv-x="556" d="M329 211H238Q210 252 180 299T120 395T64 491T17 577Q23 590 37 601T72 613Q96 613 110 602T137 564Q147 547 162 521T193 465T227 404T258 350T281 309H285Q317 364 342 412T392 507T440 603Q449 608 461 610T483 613Q506
613 519 602T532 569Q532 559 519 530T479 454T416 347T329 211ZM232 255H334V2Q328 0 315 -3T287 -6Q258 -6 245 5T232 42V255Z" />
<glyph unicode="Z" horiz-adv-x="558" d="M73 112L446 608H482Q507 588 507 557Q507 540 500 526T481 496L110 0H70Q60 9 53 22T46 51Q46 68 53 82T73 112ZM91 0L115 86H502Q507 80 510 69T514 45Q514 24 504 12T476 0H91ZM460 608L441 522H66Q62 528 58 539T54
563Q54 585 64 596T93 608H460Z" />
<glyph unicode="[" horiz-adv-x="276" d="M64 -54V587H157V-54H64ZM64 -36H259Q262 -44 264 -53T267 -74Q267 -95 257 -105T228 -115H113Q88 -115 76 -101T64 -66V-36ZM113 653H259Q262 646 264 637T267 615Q267 595 257 585T228 575H64V604Q64 626 76 639T113 653Z" />
<glyph unicode="\" horiz-adv-x="345" d="M125 634L311 -40Q302 -49 287 -55T258 -62Q242 -62 231 -55T214 -30L28 644Q37 653 51 659T80 666Q96 666 108 659T125 634Z" />
<glyph unicode="]" horiz-adv-x="280" d="M213 594V-49H120V594H213ZM213 575H17Q14 582 12 591T9 612Q9 633 19 643T49 653H163Q188 653 200 640T213 604V575ZM163 -115H17Q14 -108 12 -99T9 -78Q9 -56 19 -46T49 -36H213V-66Q213 -87 201 -101T163 -115Z" />
<glyph unicode="^" horiz-adv-x="469" d="M184 645Q191 650 204 654T233 658Q273 658 283 638Q297 615 315 578T354 498T391 414T419 343Q413 335 401 328T373 321Q353 321 342 329T321 360L234 562H228Q222 550 211 524T186 465T159 396T136 331Q127 326 116
323T92 320Q75 320 63 328T50 357Q50 367 61 395T89 462T126 537T161 604T184 645Z" />
<glyph unicode="_" horiz-adv-x="475" d="M434 -138H9Q5 -131 3 -122T0 -100Q0 -78 11 -68T41 -57H466Q469 -64 472 -74T475 -97Q475 -117 465 -127T434 -138Z" />
<glyph unicode="`" horiz-adv-x="302" d="M144 539L49 637Q48 641 48 645T47 652Q47 673 60 685T94 698Q107 698 117 693T138 676L228 564Q226 543 214 532T186 521Q172 521 163 526T144 539Z" />
<glyph unicode="a" horiz-adv-x="510" d="M245 -14Q148 -14 94 23T39 134Q39 200 82 235T204 278L344 292V315Q344 360 315 380T236 401Q196 401 159 390T92 364Q83 372 76 383T69 407Q69 439 103 454Q130 467 166 474T242 481Q334 481 388 441T443 314V80Q443
57 433 45T406 21Q380 7 339 -3T245 -14ZM245 65Q281 65 307 72T344 87V217L232 206Q186 202 163 185T139 136Q139 103 165 84T245 65Z" />
<glyph unicode="b" horiz-adv-x="559" d="M291 481Q354 481 404 454T484 373T513 234Q513 151 483 96T398 13T272 -14Q219 -14 178 -1T110 28Q89 42 81 56T72 92V420H173V96Q187 86 212 77T271 68Q334 68 372 108T410 234Q410 320 372 359T274 399Q236 399 207
385T159 352L147 434Q170 450 205 465T291 481ZM173 398H72V649Q78 651 91 653T119 656Q146 656 159 646T173 610V398Z" />
<glyph unicode="c" horiz-adv-x="481" d="M298 398Q234 398 191 356T148 233Q148 153 189 111T297 69Q337 69 364 79T411 103Q424 95 431 85T439 58Q439 28 398 8T293 -13Q220 -13 164 14T77 95T45 233Q45 315 78 370T167 453T290 481Q354 481 394 459T434 406Q434
393 427 382T408 365Q387 378 362 388T298 398Z" />
<glyph unicode="d" horiz-adv-x="556" d="M384 91V416L485 417V83Q485 63 476 50T447 25Q425 11 386 -1T297 -14Q221 -14 165 12T77 92T45 232Q45 319 76 374T160 455T279 481Q317 481 350 471T402 447V358Q384 374 356 386T291 399Q251 399 219 383T167 329T148
230Q148 146 188 107T296 68Q327 68 347 75T384 91ZM485 394H383V649Q390 651 403 653T430 656Q458 656 471 646T485 610V394Z" />
<glyph unicode="e" horiz-adv-x="526" d="M111 177L107 251L392 292Q388 339 358 370T273 402Q216 402 179 362T141 247L143 211Q150 139 193 103T308 67Q350 67 384 80T440 109Q452 101 459 90T467 64Q467 42 445 24T386 -4T302 -14Q224 -14 167 14T77 99T45
238Q45 297 62 342T111 418T184 465T274 481Q337 481 385 455T460 382T488 274Q488 250 476 239T442 224L111 177Z" />
<glyph unicode="f" horiz-adv-x="406" d="M153 359V439H360Q364 433 367 423T371 399Q371 379 361 369T334 359H153ZM170 495V372H72V499Q72 560 95 598T161 654T261 672Q322 672 355 656T389 612Q389 599 384 589T369 570Q351 579 326 584T275 590Q218 590 194
568T170 495ZM72 411H173V2Q166 0 154 -3T127 -6Q99 -6 86 4T72 41V411Z" />
<glyph unicode="g" horiz-adv-x="544" d="M264 15Q205 15 156 38T76 112T46 248Q46 325 76 376T159 454T283 481Q331 481 372 469T439 439Q455 429 465 415T475 381V71H376V375Q360 385 338 392T285 399Q223 399 186 362T148 248Q148 165 185 131T278 96Q319 96
344 110T386 140L390 55Q373 40 341 28T264 15ZM376 -9V93H475V-14Q475 -81 446 -122T365 -182T249 -201Q198 -201 161 -191T108 -171Q77 -152 77 -122Q77 -106 84 -95T101 -77Q124 -93 162 -106T243 -119Q307 -119 341 -93T376 -9Z" />
<glyph unicode="h" horiz-adv-x="559" d="M489 200H388V292Q388 347 358 373T280 399Q243 399 212 385T159 352L148 434Q171 450 209 465T295 481Q382 481 435 435T489 296V200ZM72 264H173V2Q166 0 154 -3T127 -6Q99 -6 86 4T72 41V264ZM388 263L489 262V2Q483
0 470 -3T443 -6Q415 -6 402 4T388 41V263ZM173 213H72V649Q78 651 91 653T119 656Q146 656 159 646T173 610V213Z" />
<glyph unicode="i" horiz-adv-x="251" d="M63 611Q63 636 80 653T125 670Q152 670 169 653T186 611Q186 586 169 569T125 552Q98 552 81 569T63 611ZM74 264H176V2Q169 0 157 -3T129 -6Q102 -6 88 4T74 41V264ZM176 213H74V464Q81 467 93 469T121 472Q149 472
162 462T176 425V213Z" />
<glyph unicode="j" horiz-adv-x="253" d="M3 -136Q27 -124 43 -112T69 -78T78 -21V286H179V-37Q179 -96 159 -130T112 -180T60 -195Q31 -195 18 -178T3 -136ZM66 611Q66 636 83 653T127 670Q154 670 171 653T188 611Q188 586 171 569T127 552Q101 552 84 569T66
611ZM179 205L78 213V464Q84 467 97 469T125 472Q153 472 166 462T179 425V205Z" />
<glyph unicode="k" horiz-adv-x="503" d="M221 205L153 253L381 476Q411 475 429 462T447 427Q447 410 436 396T401 363L221 205ZM154 237L229 277L473 53Q470 25 456 9T417 -7Q398 -7 383 3T351 31L154 237ZM72 267L173 258V2Q166 0 154 -3T127 -6Q99 -6 86 4T72
41V267ZM173 207L72 216V649Q78 651 91 653T119 656Q146 656 159 646T173 610V207Z" />
<glyph unicode="l" horiz-adv-x="255" d="M77 264L178 255V2Q172 0 160 -3T132 -6Q104 -6 91 4T77 41V264ZM178 205L77 213V649Q83 651 96 653T123 656Q152 656 165 646T178 610V205Z" />
<glyph unicode="m" horiz-adv-x="823" d="M462 323V209H361V313Q361 358 335 378T267 399Q239 399 214 390T171 370V209H70V372Q70 394 79 408T109 437Q137 455 181 468T270 481Q320 481 360 466T422 422Q429 416 434 411T443 397Q451 384 456 365T462 323ZM753
318V209H652V313Q652 358 627 378T560 399Q529 399 500 387T448 351L402 418Q430 443 472 462T571 481Q624 481 665 464T729 411T753 318ZM70 259H171V2Q164 0 152 -3T125 -6Q97 -6 84 4T70 41V259ZM361 259H462V2Q456 0 443 -3T416 -6Q388 -6 375 4T361 41V259ZM652
259H753V2Q747 0 734 -3T707 -6Q679 -6 666 4T652 41V259Z" />
<glyph unicode="n" horiz-adv-x="558" d="M488 307V207H387V303Q387 353 359 376T282 399Q247 399 219 391T171 370V207H70V372Q70 395 79 409T109 437Q137 454 182 467T283 481Q379 481 433 438T488 307ZM70 259H171V2Q164 0 152 -3T125 -6Q97 -6 84 4T70 41V259ZM387
259H488V2Q482 0 469 -3T442 -6Q413 -6 400 4T387 41V259Z" />
<glyph unicode="o" horiz-adv-x="561" d="M516 234Q516 158 487 103T405 17T281 -14Q209 -14 156 16T74 102T45 234Q45 310 74 365T157 450T281 481Q351 481 404 451T486 365T516 234ZM281 399Q220 399 184 355T148 234Q148 155 183 112T281 68Q343 68 377 112T412
234Q412 311 377 355T281 399Z" />
<glyph unicode="p" horiz-adv-x="555" d="M279 -13Q238 -13 203 -2T149 23V113Q168 96 196 83T265 69Q330 69 369 109T408 235Q408 296 389 331T337 383T266 399Q234 399 211 391T171 374V50H70V378Q70 400 78 413T107 440Q135 456 175 468T266 481Q336 481 391
456T478 376T510 235Q510 153 481 98T399 15T279 -13ZM125 -187Q97 -187 84 -176T70 -140V81L171 80V-180Q164 -182 152 -184T125 -187Z" />
<glyph unicode="q" horiz-adv-x="556" d="M486 66L385 67V375Q370 385 347 392T294 399Q253 399 220 382T168 328T148 231Q148 146 187 107T292 68Q325 68 352 79T396 106V18Q376 5 347 -4T277 -14Q210 -14 157 12T75 92T45 231Q45 316 77 371T164 454T291 481Q341
481 382 469T450 440Q466 430 476 416T486 382V66ZM384 82L486 84V-183Q479 -185 466 -187T439 -190Q411 -190 398 -179T384 -143V82Z" />
<glyph unicode="r" horiz-adv-x="389" d="M171 368V221H70V370Q70 394 80 409T111 439Q139 457 184 469T284 481Q371 481 371 432Q371 420 368 410T358 393Q348 395 333 396T301 398Q260 398 227 390T171 368ZM70 264L171 255V2Q164 0 152 -3T125 -6Q97 -6 84
4T70 41V264Z" />
<glyph unicode="s" horiz-adv-x="458" d="M415 128Q415 61 366 24T222 -14Q144 -14 95 10T45 67Q45 82 52 95T73 115Q101 97 137 82T220 67Q315 67 315 128Q315 153 299 169T250 193L179 211Q112 226 81 259T49 344Q49 402 96 441T234 481Q281 481 317 472T374
446T395 408Q395 393 388 381T370 363Q358 371 339 379T294 394T240 401Q198 401 174 386T149 344Q149 324 163 310T210 288L270 274Q344 256 379 221T415 128Z" />
<glyph unicode="t" horiz-adv-x="378" d="M71 264H172V136Q172 99 193 84T252 69Q269 69 288 74T322 86Q329 79 334 69T339 45Q339 19 313 3T234 -13Q160 -13 116 20T71 129V264ZM128 376V457H328Q331 452 335 441T339 418Q339 397 329 387T302 376H128ZM172 235H71V597Q77
599 90 601T118 604Q145 604 158 594T172 558V235Z" />
<glyph unicode="u" horiz-adv-x="558" d="M70 175V260H171V178Q171 119 201 94T287 68Q323 68 348 75T387 91V260H488V87Q488 65 482 51T454 25Q429 10 386 -2T286 -14Q219 -14 170 6T96 68T70 175ZM488 210H387V466Q393 468 406 470T433 473Q462 473 475 463T488
426V210ZM171 210H70V466Q76 468 89 470T117 473Q144 473 157 463T171 426V210Z" />
<glyph unicode="v" horiz-adv-x="507" d="M425 477Q446 477 460 467T474 434Q474 420 463 384T435 297T396 193T354 90T314 7Q307 1 291 -3T256 -7Q234 -7 217 -1T194 19Q183 39 166 77T130 165T91 266T55 366T28 452Q36 463 51 470T81 477Q103 477 116 467T137
431L194 258Q202 234 213 202T236 138T254 86H259Q294 181 325 277T380 466Q399 477 425 477Z" />
<glyph unicode="w" horiz-adv-x="744" d="M374 327Q358 268 339 208T303 96T271 8Q262 1 249 -3T214 -7Q192 -7 175 0T151 21Q142 41 130 78T104 165T78 266T54 367T35 454Q44 463 57 470T89 477Q112 477 124 466T141 427Q150 377 160 325T182 226T201 143T214
89H218Q225 113 241 165T278 285T321 422Q332 428 345 431T375 435Q397 435 412 428T432 404Q454 338 473 275T507 162T528 89H533Q553 175 576 272T615 465Q634 477 659 477Q680 477 693 468T706 436Q706 424 700 393T684 320T661 232T635 142T610 63T589 8Q582
2 567 -2T532 -7Q481 -7 472 17Q459 51 443 101T409 210T374 327Z" />
<glyph unicode="x" horiz-adv-x="492" d="M213 273L232 278Q271 329 306 375T379 474Q384 475 386 475T392 475Q419 475 434 463T450 431Q450 416 444 404T422 373Q390 334 357 295T292 218L260 196Q224 147 187 96T113 -6Q112 -6 106 -6T98 -6Q68 -6 53 6T38
38Q38 50 43 61T65 92Q101 138 139 182T213 273ZM274 267L297 254Q337 200 378 148T459 43Q457 20 443 7T406 -7Q385 -7 372 4T342 37Q313 77 282 121T222 204L199 224Q156 276 117 324T38 422Q43 447 57 461T91 475Q112 475 124 465T149 437Q178 398 209 354T274
267Z" />
<glyph unicode="y" horiz-adv-x="504" d="M159 108Q143 140 121 192T74 311T28 452Q36 463 50 470T81 477Q103 477 116 467T138 431Q166 350 196 271T261 107H265Q285 150 306 211T346 339T378 466Q388 471 398 474T422 477Q443 477 457 467T472 435Q472 415 463
377T439 289T404 187T362 82T316 -10Q268 -98 228 -144T151 -190Q124 -190 108 -175T89 -138Q110 -119 136 -90T186 -28T227 36Q210 41 195 55T159 108Z" />
<glyph unicode="z" horiz-adv-x="472" d="M103 0H63Q54 8 48 19T42 45Q42 59 48 71T64 95L366 467H403Q413 459 418 448T424 422Q424 409 418 397T402 372L103 0ZM386 467V386H59Q55 393 52 404T48 427Q48 448 58 457T84 467H386ZM80 0V81H422Q425 75 429 65T433
41Q433 20 423 10T395 0H80Z" />
<glyph unicode="{" horiz-adv-x="294" d="M140 273Q172 257 189 224T206 141V14Q206 -20 220 -34T262 -52Q264 -58 264 -63T265 -75Q265 -97 253 -108T217 -120Q172 -120 143 -89T114 5V124Q114 175 96 202T41 236Q37 242 36 253T34 273Q34 282 36 292T41 310Q78
317 96 344T114 421V534Q114 596 143 627T218 658Q241 658 253 647T265 614Q265 608 265 602T262 590Q235 588 221 574T206 524V405Q206 355 189 322T140 273Z" />
<glyph unicode="|" horiz-adv-x="258" d="M175 634V-177Q167 -180 156 -182T132 -184Q108 -184 96 -175T83 -137V674Q92 677 102 679T126 681Q151 681 163 671T175 634Z" />
<glyph unicode="}" horiz-adv-x="294" d="M154 273Q122 289 105 322T88 405V524Q88 559 74 573T32 590Q31 596 30 602T29 614Q29 636 41 647T77 658Q122 658 151 627T180 534V421Q180 371 198 344T253 310Q256 303 258 293T260 273Q260 264 259 253T253 236Q216
229 198 202T180 124V5Q180 -57 151 -88T77 -120Q54 -120 42 -109T29 -75Q29 -69 30 -64T32 -52Q59 -49 73 -35T88 14V141Q88 191 105 224T154 273Z" />
<glyph unicode="~" horiz-adv-x="461" d="M315 289Q341 289 353 303T374 333Q400 333 419 318T438 278Q438 242 410 221T338 200Q300 200 267 210T204 229T146 239Q120 239 108 225T88 195Q61 195 42 210T23 251Q23 276 36 293T73 320T123 329Q163 329 196 319T258
299T315 289Z" />
<glyph unicode="&#xa0;" horiz-adv-x="200" />
<glyph unicode="&#xa1;" horiz-adv-x="261" d="M80 -117Q80 -89 81 -43T83 58T87 166T94 262Q100 267 111 270T134 273Q151 273 162 267T176 244Q179 216 181 167T185 60T187 -55T188 -152Q162 -168 131 -168Q107 -168 94 -156T80 -117ZM198 407Q198 379 181 361T133
342Q103 342 86 360T68 407Q68 435 85 453T133 472Q163 472 180 454T198 407Z" />
<glyph unicode="&#xa2;" horiz-adv-x="480" d="M222 38H313V-103Q308 -104 297 -106T273 -109Q248 -109 235 -99T222 -67V38ZM313 416H222V572Q228 574 239 575T263 577Q289 577 301 567T313 535V416ZM297 398Q233 398 190 356T147 233Q147 153 188 111T297 69Q336
69 363 79T411 103Q424 95 431 85T439 58Q439 28 398 8T291 -13Q219 -13 163 14T76 95T44 233Q44 315 77 370T167 453T289 481Q353 481 393 459T434 406Q434 393 426 382T407 365Q387 378 361 388T297 398Z" />
<glyph unicode="&#xa3;" horiz-adv-x="504" d="M379 258H87Q73 258 63 267T53 299Q53 311 56 320T63 338H404Q408 330 411 321T414 299Q414 276 405 267T379 258ZM138 221Q138 244 135 279T127 352T123 416Q123 489 151 534T227 600T332 622Q398 622 430 601T462
554Q462 543 456 530T437 510Q417 523 395 530T342 538Q283 538 254 506T224 407Q224 381 227 345T234 274T237 219Q237 173 225 139T188 82H464Q468 74 471 64T474 41Q474 20 464 10T438 0H100Q79 0 65 13T50 53Q50 62 51 68Q94 90 116 122T138 221Z" />
<glyph unicode="&#xa4;" horiz-adv-x="534" d="M266 109Q213 109 170 130T100 193T74 296Q74 357 100 398T169 461T266 483Q319 483 362 462T432 399T458 296Q458 235 432 194T363 131T266 109ZM125 60Q104 64 88 75T72 105Q72 118 79 130T97 156L148 219L206
164L125 60ZM424 67Q410 67 398 78T375 104L324 166L390 208L475 107Q466 86 453 77T424 67ZM266 183Q312 183 340 212T368 296Q368 350 340 380T266 410Q220 410 192 380T163 296Q163 242 191 213T266 183ZM144 380L59 482Q68 502 81 511T110 521Q124 521 136
510T158 485L210 422L144 380ZM388 368L330 424L411 528Q432 524 447 514T463 483Q463 470 457 458T438 431L388 368Z" />
<glyph unicode="&#xa5;" horiz-adv-x="558" d="M365 311L203 310Q172 356 140 406T81 502T36 585Q44 596 57 606T90 616Q112 616 125 605T153 568L281 352H286Q315 400 335 438T376 515T424 606Q435 611 446 613T469 616Q491 616 503 605T515 575Q515 565 504
542T471 483T423 403T365 311ZM230 188H333V1Q327 0 314 -3T287 -6Q257 -6 244 5T230 41V188ZM251 274L270 346H500Q504 338 507 329T510 309Q510 292 502 283T480 274H251ZM300 346L315 274H63Q58 280 55 289T52 310Q52 330 60 338T82 346H300ZM479 137H63Q58
143 55 152T52 174Q52 194 60 201T81 209H499Q502 203 505 193T508 173Q508 155 500 146T479 137Z" />
<glyph unicode="&#xa6;" horiz-adv-x="293" d="M175 635V311Q167 308 156 306T132 304Q108 304 96 314T83 351V675Q92 678 102 680T126 682Q151 682 163 672T175 635ZM175 147V-177Q167 -180 156 -182T132 -184Q108 -184 96 -175T83 -137V187Q92 190 102 192T126
194Q151 194 163 184T175 147Z" />
<glyph unicode="&#xa7;" horiz-adv-x="514" d="M456 86Q456 22 404 -14T249 -50Q194 -50 151 -40T83 -11T58 31Q58 47 66 58T85 78Q118 58 158 44T247 29Q301 29 328 44T356 87Q356 111 339 123T281 143L197 161Q135 172 98 203T60 295Q60 347 94 377T180 417L218
374Q191 364 174 345T157 297Q157 273 174 258T224 236L314 217Q380 203 418 174T456 86ZM456 282Q456 249 442 224T406 183T359 157L297 200Q325 213 342 231T359 279Q359 304 341 319T282 342L197 359Q158 368 128 382T81 422T64 489Q64 553 114 587T252 622Q301
622 340 613T402 588T425 550Q425 535 418 524T402 506Q386 514 363 522T312 536T257 542Q213 542 188 529T163 487Q163 463 179 452T227 435L309 419Q378 404 417 373T456 282Z" />
<glyph unicode="&#xa8;" horiz-adv-x="374" d="M156 612Q156 589 140 573T98 556Q73 556 57 572T41 612Q41 635 57 651T98 668Q124 668 140 652T156 612ZM339 612Q339 589 323 573T281 556Q257 556 241 572T224 612Q224 635 240 651T281 668Q306 668 322 652T339 612Z" />
<glyph unicode="&#xa9;" horiz-adv-x="713" d="M50 300Q50 387 88 457T195 569T355 611Q446 611 515 570T624 458T663 300Q663 216 624 147T516 38T355 -2Q264 -2 195 38T88 147T50 300ZM355 549Q283 549 231 517T150 430T122 300Q122 230 150 176T230 92T355
61Q428 61 480 91T560 176T588 300Q588 374 560 429T480 517T355 549ZM381 409Q343 409 313 384T283 305Q283 254 311 228T383 201Q409 201 424 207T452 221Q473 208 473 185Q473 168 448 151T374 134Q326 134 287 154T225 212T202 305Q202 365 227 402T291 458T369
477Q412 477 440 461T469 421Q469 412 463 403T448 389Q435 396 419 402T381 409Z" />
<glyph unicode="&#xaa;" horiz-adv-x="353" d="M172 301Q109 301 72 325T35 398Q35 443 64 466T151 494L232 503V509Q232 539 215 550T162 561Q137 561 112 554T68 536Q61 540 56 549T50 569Q50 581 56 588T74 602Q90 610 116 615T168 621Q228 621 266 597T304
509V356Q304 345 297 337T278 323Q235 301 172 301ZM172 360Q191 360 207 364T233 373V446L170 440Q138 437 123 428T108 402Q108 382 123 371T172 360Z" />
<glyph unicode="&#xab;" horiz-adv-x="494" d="M117 224L252 85Q252 67 240 52T204 37Q189 37 177 46T152 67L45 184Q40 192 37 202T34 224Q34 244 38 255T52 273L197 422Q221 416 233 404T245 376Q245 362 238 351T214 322L117 224ZM322 224L456 85Q456 67 444
52T409 37Q394 37 381 46T357 67L249 184Q244 192 241 202T237 224Q237 244 242 255T256 273L401 422Q425 416 437 404T449 376Q449 362 442 351T417 322L322 224Z" />
<glyph unicode="&#xac;" horiz-adv-x="539" d="M86 398H445Q466 398 479 386T492 352V182Q484 179 472 177T447 175Q422 175 410 185T397 223V318H55Q52 325 49 335T46 357Q46 378 57 388T86 398Z" />
<glyph unicode="&#xad;" horiz-adv-x="381" d="M291 218H58Q54 226 51 236T48 258Q48 280 59 290T89 301H323Q326 294 329 284T332 261Q332 240 322 229T291 218Z" />
<glyph unicode="&#xae;" horiz-adv-x="619" d="M53 376Q53 445 85 502T175 593T309 627Q384 627 442 593T533 502T566 376Q566 307 534 250T443 159T309 125Q233 125 175 158T85 249T53 376ZM116 376Q116 320 140 276T207 206T309 180Q367 180 410 205T477 275T501
376Q501 432 478 476T411 546T309 572Q251 572 208 547T140 477T116 376ZM304 347H282V268Q277 267 270 266T253 265Q240 265 232 269T224 291V476Q224 490 245 494Q259 498 272 499T301 500Q351 500 378 480T405 423Q405 398 391 381T357 356L412 286Q410 277
401 271T381 264Q369 264 361 270T344 287L304 347ZM282 391H310Q346 391 346 424Q346 439 335 447T305 455Q298 455 293 455T282 454V391Z" />
<glyph unicode="&#xaf;" horiz-adv-x="336" d="M274 569H38Q34 576 30 586T25 608Q25 629 35 638T63 648H300Q305 641 308 631T311 609Q311 588 301 579T274 569Z" />
<glyph unicode="&#xb0;" horiz-adv-x="360" d="M327 486Q327 444 307 414T254 367T181 350Q117 350 76 388T34 486Q34 527 54 557T107 604T180 621Q220 621 253 605T307 558T327 486ZM180 553Q155 553 135 536T115 486Q115 452 134 435T180 417Q207 417 226 434T245
486Q245 519 225 536T180 553Z" />
<glyph unicode="&#xb1;" horiz-adv-x="547" d="M443 317H71Q68 324 65 334T62 356Q62 378 73 388T103 398H476Q479 391 481 381T484 359Q484 338 474 328T443 317ZM443 0H71Q68 7 65 17T62 39Q62 60 73 70T103 81H476Q479 74 481 64T484 42Q484 21 474 11T443
0ZM321 512V160Q313 158 302 155T278 152Q254 152 242 162T229 200V552Q238 554 249 556T273 559Q297 559 309 549T321 512Z" />
<glyph unicode="&#xb2;" horiz-adv-x="277" d="M123 698Q178 698 209 672T240 597Q240 566 223 538T165 477L103 427H240Q243 422 245 415T247 399Q247 386 241 379T219 371H38Q31 378 27 386T23 407Q23 422 27 431T38 446L122 520Q147 543 159 561T172 596Q172
619 157 630T119 641Q99 641 82 634T51 617Q44 622 39 629T34 649Q34 671 60 684T123 698Z" />
<glyph unicode="&#xb3;" horiz-adv-x="275" d="M77 563H131Q150 563 162 573T174 599Q174 619 158 630T114 641Q93 641 75 635T44 620Q36 626 31 634T26 653Q26 674 54 686T123 698Q180 698 211 673T242 606Q242 583 229 564T194 537Q217 529 231 509T246 460Q246
411 211 388T122 364Q76 364 46 378T16 415Q16 426 22 435T38 449Q51 439 70 430T118 421Q145 421 162 432T179 466Q179 485 167 496T132 507H77Q73 513 71 520T69 535Q69 553 77 563Z" />
<glyph unicode="&#xb4;" horiz-adv-x="298" d="M87 593L185 702Q214 702 230 688T247 656Q247 641 240 631T216 605L124 519Q100 519 85 532T70 560Q70 570 75 577T87 593Z" />
<glyph unicode="&#xb5;" horiz-adv-x="559" d="M71 246H168L160 65Q165 30 168 -18T172 -118V-178Q166 -181 154 -184T127 -187Q99 -187 85 -176T71 -140V246ZM127 147V254L172 260V178Q172 119 203 94T289 68Q325 68 349 75T388 91V260H489V87Q489 65 483 52T455
25Q432 12 394 -1T301 -14Q248 -14 209 3T148 55T127 147ZM489 210H388V466Q395 468 407 470T434 473Q462 473 475 463T489 426V210ZM172 210H71V466Q78 468 90 470T117 473Q146 473 159 463T172 426V210Z" />
<glyph unicode="&#xb6;" horiz-adv-x="467" d="M222 613H345Q371 613 385 604T400 565V-69Q395 -70 382 -73T355 -76Q328 -76 314 -66T299 -29V527H232V264Q232 252 219 244T175 236Q137 236 100 255T39 315T15 419Q15 485 44 527T121 591T222 613Z" />
<glyph unicode="&#xb7;" horiz-adv-x="164" d="M17 256Q17 284 34 303T82 322Q113 322 129 303T146 256Q146 229 130 210T82 191Q52 191 35 210T17 256Z" />
<glyph unicode="&#xb8;" horiz-adv-x="195" d="M55 3L115 22Q145 2 157 -25T170 -85Q170 -133 140 -162T59 -192Q30 -192 14 -180T-2 -146Q-2 -131 3 -121H17Q52 -121 67 -106T83 -65Q83 -49 77 -31T55 3Z" />
<glyph unicode="&#xb9;" horiz-adv-x="214" d="M96 400V619L39 594Q31 598 23 607T14 630Q14 642 20 650T40 663L113 694H126Q144 694 153 684T162 656V374Q156 371 148 370T131 368Q115 368 106 374T96 400Z" />
<glyph unicode="&#xba;" horiz-adv-x="382" d="M341 461Q341 383 300 342T190 301Q124 301 82 342T40 461Q40 538 82 579T190 621Q258 621 299 579T341 461ZM190 559Q156 559 135 534T114 461Q114 414 135 389T190 363Q225 363 245 388T266 461Q266 507 246 533T190 559Z" />
<glyph unicode="&#xbb;" horiz-adv-x="494" d="M376 234L242 374Q242 392 253 407T289 422Q304 422 317 413T340 392L449 274Q454 267 457 257T460 235Q460 215 455 204T442 185L296 37Q273 43 261 54T249 82Q249 97 256 108T280 137L376 234ZM172 234L38 374Q38
392 50 407T85 422Q101 422 113 413T137 392L245 274Q250 267 253 257T256 235Q256 215 251 204T237 185L92 37Q69 43 57 54T45 82Q45 97 52 108T76 137L172 234Z" />
<glyph unicode="&#xbc;" horiz-adv-x="609" d="M90 320V539L33 514Q25 518 17 527T8 550Q8 562 14 570T34 583L107 614H120Q138 614 147 604T156 576V294Q150 291 142 290T125 288Q109 288 100 294T90 320ZM546 286V125H592Q595 121 596 115T598 99Q598 84 590
77T572 70H343Q333 74 327 83T321 105Q321 115 323 123T332 138L463 316Q470 318 480 319T499 321Q518 321 532 313T546 286ZM483 125V184Q483 198 483 216T485 253L398 125H483ZM481 27V96H546V2Q540 -1 532 -2T515 -4Q498 -4 490 2T481 27ZM90 73L454 611Q475
609 487 601T500 577Q500 566 496 556T482 533L119 -5Q97 -4 85 5T72 29Q72 40 76 49T90 73Z" />
<glyph unicode="&#xbd;" horiz-adv-x="625" d="M90 320V539L33 514Q25 518 17 527T8 550Q8 562 14 570T34 583L107 614H120Q138 614 147 604T156 576V294Q150 291 142 290T125 288Q109 288 100 294T90 320ZM474 327Q529 327 560 301T591 226Q591 195 574 167T516
106L454 56H591Q594 51 596 44T598 28Q598 15 592 8T570 0H389Q382 7 378 15T374 36Q374 51 378 60T389 75L473 149Q498 172 510 190T523 225Q523 248 508 259T470 270Q450 270 433 263T402 246Q395 251 390 258T385 278Q385 300 411 313T474 327ZM90 73L454 611Q475
609 487 601T500 577Q500 566 496 556T482 533L119 -5Q97 -4 85 5T72 29Q72 40 76 49T90 73Z" />
<glyph unicode="&#xbe;" horiz-adv-x="656" d="M77 484H131Q150 484 162 494T174 520Q174 540 158 551T114 562Q93 562 75 556T44 541Q36 547 31 555T26 574Q26 595 54 607T123 619Q180 619 211 594T242 527Q242 504 229 485T194 458Q217 450 231 430T246 381Q246
332 211 309T122 285Q76 285 46 299T16 336Q16 347 22 356T38 370Q51 360 70 351T118 342Q145 342 162 353T179 387Q179 406 167 417T132 428H77Q73 434 71 441T69 456Q69 474 77 484ZM594 286V125H640Q643 121 644 115T646 99Q646 84 638 77T620 70H391Q381 74
375 83T369 105Q369 115 371 123T380 138L511 316Q518 318 528 319T547 321Q566 321 580 313T594 286ZM531 125V184Q531 198 531 216T533 253L446 125H531ZM529 27V96H594V2Q588 -1 580 -2T563 -4Q546 -4 538 2T529 27ZM141 73L505 611Q526 609 538 601T551 577Q551
566 547 556T533 533L170 -5Q148 -4 136 5T123 29Q123 40 127 49T141 73Z" />
<glyph unicode="&#xbf;" horiz-adv-x="468" d="M247 234L346 257Q357 248 364 234T372 203Q372 185 362 175T329 158L258 140Q201 125 172 97T142 22Q142 -20 172 -50T269 -80Q310 -80 349 -68T412 -37Q424 -47 431 -59T439 -88Q439 -123 389 -145T261 -168Q193
-168 142 -144T63 -77T35 21Q35 106 88 158T247 234ZM362 407Q362 379 345 360T296 341Q266 341 248 360T230 407Q230 435 248 453T296 472Q327 472 344 454T362 407Z" />
<glyph unicode="&#xc0;" horiz-adv-x="600" d="M303 525H299Q285 486 267 434T230 327T193 221L184 183Q178 164 170 139T154 88T137 38T124 -1Q116 -5 107 -7T83 -9Q59 -9 44 2T28 34Q28 45 31 55T39 79Q50 112 67 161T105 269T148 387T190 501T228 598Q238 603
258 608T300 614Q327 614 350 606T380 579Q402 523 428 451T480 300T531 148T574 14Q566 4 552 -2T519 -8Q492 -8 480 2T461 36L413 183L402 228Q384 284 366 340T331 444T303 525ZM136 154L173 237H438L455 154H136ZM257 679L168 761Q167 765 167 769T167 776Q167
797 179 809T210 822Q236 822 255 800L339 703Q337 682 326 671T298 660Q285 660 276 665T257 679Z" />
<glyph unicode="&#xc1;" horiz-adv-x="600" d="M303 525H299Q285 486 267 434T230 327T193 221L184 183Q178 164 170 139T154 88T137 38T124 -1Q116 -5 107 -7T83 -9Q59 -9 44 2T28 34Q28 45 31 55T39 79Q50 112 67 161T105 269T148 387T190 501T228 598Q238 603
258 608T300 614Q327 614 350 606T380 579Q402 523 428 451T480 300T531 148T574 14Q566 4 552 -2T519 -8Q492 -8 480 2T461 36L413 183L402 228Q384 284 366 340T331 444T303 525ZM136 154L173 237H438L455 154H136ZM282 732L379 826Q406 825 420 813T434 782Q434
767 428 756T404 732L315 660Q292 662 279 672T266 697Q266 708 270 716T282 732Z" />
<glyph unicode="&#xc2;" horiz-adv-x="600" d="M304 747Q286 729 263 705T212 657Q191 658 178 669T165 697Q165 711 173 721T196 745L248 795Q277 822 305 822Q324 822 337 815T365 792L447 702Q447 682 436 671T405 659Q391 659 380 666T352 693L304 747ZM303
525H299Q285 486 267 434T230 327T193 221L184 183Q178 164 170 139T154 88T137 38T124 -1Q116 -5 107 -7T83 -9Q59 -9 44 2T28 34Q28 45 31 55T39 79Q50 112 67 161T105 269T148 387T190 501T228 598Q238 603 258 608T300 614Q327 614 350 606T380 579Q402 523
428 451T480 300T531 148T574 14Q566 4 552 -2T519 -8Q492 -8 480 2T461 36L413 183L402 228Q384 284 366 340T331 444T303 525ZM136 154L173 237H438L455 154H136Z" />
<glyph unicode="&#xc3;" horiz-adv-x="600" d="M303 525H299Q285 486 267 434T230 327T193 221L184 183Q178 164 170 139T154 88T137 38T124 -1Q116 -5 107 -7T83 -9Q59 -9 44 2T28 34Q28 45 31 55T39 79Q50 112 67 161T105 269T148 387T190 501T228 598Q238 603
258 608T300 614Q327 614 350 606T380 579Q402 523 428 451T480 300T531 148T574 14Q566 4 552 -2T519 -8Q492 -8 480 2T461 36L413 183L402 228Q384 284 366 340T331 444T303 525ZM136 154L173 237H438L455 154H136ZM230 799Q258 799 281 791T325 775T362 766Q381
766 390 777T404 804H409Q431 804 447 792T463 756Q463 724 441 706T384 688Q355 688 331 696T286 713T250 721Q231 721 222 710T209 683H204Q182 683 166 695T150 731Q150 754 161 768T191 791T230 799Z" />
<glyph unicode="&#xc4;" horiz-adv-x="600" d="M303 525H299Q285 486 267 434T230 327T193 221L184 183Q178 164 170 139T154 88T137 38T124 -1Q116 -5 107 -7T83 -9Q59 -9 44 2T28 34Q28 45 31 55T39 79Q50 112 67 161T105 269T148 387T190 501T228 598Q238 603
258 608T300 614Q327 614 350 606T380 579Q402 523 428 451T480 300T531 148T574 14Q566 4 552 -2T519 -8Q492 -8 480 2T461 36L413 183L402 228Q384 284 366 340T331 444T303 525ZM136 154L173 237H438L455 154H136ZM267 741Q267 718 251 702T209 685Q184 685
168 701T152 741Q152 764 168 780T209 797Q235 797 251 781T267 741ZM450 741Q450 718 434 702T392 685Q368 685 352 701T335 741Q335 764 351 780T392 797Q417 797 433 781T450 741Z" />
<glyph unicode="&#xc5;" horiz-adv-x="600" d="M303 525H299Q285 486 267 434T230 327T193 221L184 183Q178 164 170 139T154 88T137 38T124 -1Q116 -5 107 -7T83 -9Q59 -9 44 2T28 34Q28 45 31 55T39 79Q50 112 67 161T105 269T148 387T190 501T228 598Q238 603
258 608T300 614Q327 614 350 606T380 579Q402 523 428 451T480 300T531 148T574 14Q566 4 552 -2T519 -8Q492 -8 480 2T461 36L413 183L402 228Q384 284 366 340T331 444T303 525ZM136 154L173 237H438L455 154H136ZM191 746Q191 787 221 814T303 842Q356 842
386 815T416 746Q416 707 386 680T303 652Q251 652 221 679T191 746ZM260 746Q260 729 272 719T303 708Q322 708 334 718T347 746Q347 765 335 775T303 786Q285 786 273 776T260 746Z" />
<glyph unicode="&#xc6;" horiz-adv-x="851" d="M470 522H395L235 214L214 174L125 -2Q117 -4 110 -6T88 -8Q62 -8 49 2T36 32Q36 42 40 53T51 79Q63 103 86 147T140 250T204 370T270 491T329 596Q338 603 354 608T393 613Q408 613 424 610T452 599T469 580L470
522ZM141 154L178 237H435L452 154H141ZM401 541H502V8Q497 6 483 3T455 -1Q431 -1 416 14T401 55V541ZM455 269V353H756Q761 347 764 337T768 313Q768 292 758 281T730 269H455ZM455 -1V84H791Q795 78 799 68T803 43Q803 22 793 11T766 -1H455ZM436 523V570Q441
587 455 597T493 608H787Q791 602 795 591T799 568Q799 547 789 535T761 523H436Z" />
<glyph unicode="&#xc7;" horiz-adv-x="584" d="M535 536Q535 520 526 508T503 488Q478 506 444 521T358 536Q299 536 254 510T182 431T156 303Q156 188 213 130T362 72Q412 72 448 86T510 118Q522 112 531 99T540 69Q540 56 533 45T509 23Q487 9 449 -2T352 -14Q267
-14 199 21T90 126T50 303Q50 408 90 479T199 586T347 622Q404 622 446 610T511 577T535 536ZM301 3L361 22Q391 2 403 -25T416 -85Q416 -133 386 -162T305 -192Q276 -192 260 -180T244 -146Q244 -131 249 -121H263Q298 -121 313 -106T329 -65Q329 -49 323 -31T301
3Z" />
<glyph unicode="&#xc8;" horiz-adv-x="543" d="M92 384H194V8Q189 6 176 3T148 -1Q122 -1 107 14T92 55V384ZM194 228H92V552Q92 577 107 592T148 608Q162 608 175 605T194 599V228ZM148 269V353H449Q453 347 456 337T460 313Q460 292 450 281T422 269H148ZM148
-1V84H484Q488 78 491 68T495 43Q495 22 486 11T457 -1H148ZM148 523V608H479Q483 602 487 591T491 568Q491 547 481 535T453 523H148ZM270 679L181 761Q180 765 180 769T180 776Q180 797 192 809T223 822Q249 822 268 800L352 703Q350 682 339 671T311 660Q298
660 289 665T270 679Z" />
<glyph unicode="&#xc9;" horiz-adv-x="543" d="M92 384H194V8Q189 6 176 3T148 -1Q122 -1 107 14T92 55V384ZM194 228H92V552Q92 577 107 592T148 608Q162 608 175 605T194 599V228ZM148 269V353H449Q453 347 456 337T460 313Q460 292 450 281T422 269H148ZM148
-1V84H484Q488 78 491 68T495 43Q495 22 486 11T457 -1H148ZM148 523V608H479Q483 602 487 591T491 568Q491 547 481 535T453 523H148ZM274 732L371 826Q398 825 412 813T426 782Q426 767 420 756T396 732L307 660Q284 662 271 672T258 697Q258 708 262 716T274
732Z" />
<glyph unicode="&#xca;" horiz-adv-x="543" d="M92 384H194V8Q189 6 176 3T148 -1Q122 -1 107 14T92 55V384ZM194 228H92V552Q92 577 107 592T148 608Q162 608 175 605T194 599V228ZM148 269V353H449Q453 347 456 337T460 313Q460 292 450 281T422 269H148ZM148
-1V84H484Q488 78 491 68T495 43Q495 22 486 11T457 -1H148ZM148 523V608H479Q483 602 487 591T491 568Q491 547 481 535T453 523H148ZM295 747Q277 729 254 705T202 657Q182 658 169 669T155 697Q155 711 163 721T186 745L238 795Q268 822 296 822Q315 822 328
815T356 792L438 702Q438 682 426 671T395 659Q382 659 371 666T343 693L295 747Z" />
<glyph unicode="&#xcb;" horiz-adv-x="543" d="M92 384H194V8Q189 6 176 3T148 -1Q122 -1 107 14T92 55V384ZM194 228H92V552Q92 577 107 592T148 608Q162 608 175 605T194 599V228ZM148 269V353H449Q453 347 456 337T460 313Q460 292 450 281T422 269H148ZM148
-1V84H484Q488 78 491 68T495 43Q495 22 486 11T457 -1H148ZM148 523V608H479Q483 602 487 591T491 568Q491 547 481 535T453 523H148ZM264 734Q264 711 248 695T206 678Q181 678 165 694T149 734Q149 757 165 773T206 790Q232 790 248 774T264 734ZM447 734Q447
711 431 695T389 678Q365 678 349 694T332 734Q332 757 348 773T389 790Q414 790 430 774T447 734Z" />
<glyph unicode="&#xcc;" horiz-adv-x="272" d="M84 382H187V2Q181 0 168 -3T140 -6Q111 -6 98 5T84 42V382ZM187 276H84V606Q91 608 104 611T132 614Q161 614 174 604T187 566V276ZM344 679L255 761Q254 765 254 769T254 776Q254 797 266 809T297 822Q323 822
342 800L426 703Q424 682 413 671T385 660Q372 660 363 665T344 679Z" />
<glyph unicode="&#xcd;" horiz-adv-x="272" d="M84 382H187V2Q181 0 168 -3T140 -6Q111 -6 98 5T84 42V382ZM187 276H84V606Q91 608 104 611T132 614Q161 614 174 604T187 566V276ZM110 732L207 826Q234 825 248 813T262 782Q262 767 256 756T232 732L143 660Q120
662 107 672T94 697Q94 708 98 716T110 732Z" />
<glyph unicode="&#xce;" horiz-adv-x="272" d="M84 382H187V2Q181 0 168 -3T140 -6Q111 -6 98 5T84 42V382ZM187 276H84V606Q91 608 104 611T132 614Q161 614 174 604T187 566V276ZM393 747Q375 729 352 705T300 657Q280 658 267 669T253 697Q253 711 261 721T284
745L336 795Q366 822 394 822Q413 822 426 815T454 792L536 702Q536 682 524 671T493 659Q480 659 469 666T441 693L393 747Z" />
<glyph unicode="&#xcf;" horiz-adv-x="272" d="M84 382H187V2Q181 0 168 -3T140 -6Q111 -6 98 5T84 42V382ZM187 276H84V606Q91 608 104 611T132 614Q161 614 174 604T187 566V276ZM357 734Q357 711 341 695T299 678Q274 678 258 694T242 734Q242 757 258 773T299
790Q325 790 341 774T357 734ZM540 734Q540 711 524 695T482 678Q458 678 442 694T425 734Q425 757 441 773T482 790Q507 790 523 774T540 734Z" />
<glyph unicode="&#xd0;" horiz-adv-x="686" d="M161 346V262H330Q347 262 357 274T368 306Q368 320 364 330T357 346H161ZM212 262V346H50Q33 346 23 335T12 302Q12 290 16 280T24 262H212ZM530 309Q530 192 474 133T312 73Q287 73 262 75T216 82V528Q235 531
257 533T306 535Q369 535 419 512T500 439T530 309ZM636 309Q636 414 594 482T478 585T304 620Q265 620 224 617T149 602Q132 597 123 588T114 561V58Q114 21 159 6Q196 -6 238 -9T313 -12Q411 -12 483 23T596 129T636 309Z" />
<glyph unicode="&#xd1;" horiz-adv-x="664" d="M83 506L173 511Q177 476 180 434T184 350T185 268V2Q179 0 166 -3T138 -6Q110 -6 97 5T83 41V506ZM581 102L490 98Q481 178 480 259T479 415V607Q486 609 499 611T526 614Q555 614 568 604T581 568V102ZM581 138V170V13Q571
5 554 0T515 -6Q488 -6 468 3T431 42L263 335Q249 360 233 389T203 446T180 493L83 470V591Q93 602 111 608T149 614Q176 614 197 604T234 566L403 273Q418 248 433 219T462 162T484 115L581 138ZM249 799Q277 799 300 791T344 775T381 766Q400 766 409 777T423
804H428Q450 804 466 792T482 756Q482 724 460 706T403 688Q374 688 350 696T305 713T269 721Q250 721 241 710T228 683H223Q201 683 185 695T169 731Q169 754 180 768T210 791T249 799Z" />
<glyph unicode="&#xd2;" horiz-adv-x="692" d="M642 304Q642 200 603 129T498 22T346 -14Q262 -14 195 22T89 129T50 304Q50 408 89 478T196 585T346 622Q429 622 496 586T602 479T642 304ZM536 304Q536 416 484 476T346 536Q260 536 208 476T156 304Q156 192
207 132T346 72Q433 72 484 132T536 304ZM305 679L216 761Q215 765 215 769T215 776Q215 797 227 809T258 822Q284 822 303 800L387 703Q385 682 374 671T346 660Q333 660 324 665T305 679Z" />
<glyph unicode="&#xd3;" horiz-adv-x="692" d="M642 304Q642 200 603 129T498 22T346 -14Q262 -14 195 22T89 129T50 304Q50 408 89 478T196 585T346 622Q429 622 496 586T602 479T642 304ZM536 304Q536 416 484 476T346 536Q260 536 208 476T156 304Q156 192
207 132T346 72Q433 72 484 132T536 304ZM328 732L425 826Q452 825 466 813T480 782Q480 767 474 756T450 732L361 660Q338 662 325 672T312 697Q312 708 316 716T328 732Z" />
<glyph unicode="&#xd4;" horiz-adv-x="692" d="M642 304Q642 200 603 129T498 22T346 -14Q262 -14 195 22T89 129T50 304Q50 408 89 478T196 585T346 622Q429 622 496 586T602 479T642 304ZM536 304Q536 416 484 476T346 536Q260 536 208 476T156 304Q156 192
207 132T346 72Q433 72 484 132T536 304ZM346 747Q328 729 305 705T253 657Q233 658 220 669T206 697Q206 711 214 721T237 745L289 795Q319 822 347 822Q366 822 379 815T407 792L489 702Q489 682 477 671T446 659Q433 659 422 666T394 693L346 747Z" />
<glyph unicode="&#xd5;" horiz-adv-x="692" d="M642 304Q642 200 603 129T498 22T346 -14Q262 -14 195 22T89 129T50 304Q50 408 89 478T196 585T346 622Q429 622 496 586T602 479T642 304ZM536 304Q536 416 484 476T346 536Q260 536 208 476T156 304Q156 192
207 132T346 72Q433 72 484 132T536 304ZM270 799Q298 799 321 791T365 775T402 766Q421 766 430 777T444 804H449Q471 804 487 792T503 756Q503 724 481 706T424 688Q395 688 371 696T326 713T290 721Q271 721 262 710T249 683H244Q222 683 206 695T190 731Q190
754 201 768T231 791T270 799Z" />
<glyph unicode="&#xd6;" horiz-adv-x="692" d="M642 304Q642 200 603 129T498 22T346 -14Q262 -14 195 22T89 129T50 304Q50 408 89 478T196 585T346 622Q429 622 496 586T602 479T642 304ZM536 304Q536 416 484 476T346 536Q260 536 208 476T156 304Q156 192
207 132T346 72Q433 72 484 132T536 304ZM311 734Q311 711 295 695T253 678Q228 678 212 694T196 734Q196 757 212 773T253 790Q279 790 295 774T311 734ZM494 734Q494 711 478 695T436 678Q412 678 396 694T379 734Q379 757 395 773T436 790Q461 790 477 774T494
734Z" />
<glyph unicode="&#xd7;" horiz-adv-x="497" d="M295 306L445 141Q440 123 427 110T393 97Q383 97 374 102T357 115L237 252L207 276L54 438Q59 455 72 470T105 485Q115 485 124 480T139 467L266 329L295 306ZM415 398L296 273L257 244L107 92Q88 97 71 110T54
141Q54 151 60 160T75 178L202 304L238 328L388 485Q405 480 419 467T434 435Q434 425 429 416T415 398Z" />
<glyph unicode="&#xd8;" horiz-adv-x="692" d="M184 74L99 -16Q72 -11 59 2T46 31Q46 45 53 56T75 82L120 127L184 74ZM607 528L559 477L506 542L583 626Q606 621 621 609T636 579Q636 568 629 557T607 528ZM530 449L188 75L149 152L476 512L530 449ZM642 304Q642
200 603 129T498 22T346 -14Q262 -14 195 23T89 132T50 304Q50 408 89 478T196 585T346 622Q429 622 496 585T602 476T642 304ZM538 304Q538 414 485 475T346 536Q260 536 207 476T154 304Q154 195 206 134T346 72Q433 72 485 132T538 304Z" />
<glyph unicode="&#xd9;" horiz-adv-x="653" d="M326 -14Q249 -14 194 14T111 93T82 213V290H185V219Q185 147 225 110T326 72Q386 72 426 109T467 219V290H571V213Q571 145 542 94T459 14T326 -14ZM185 252H82V606Q89 608 102 611T130 614Q159 614 172 604T185
566V252ZM571 252H467V606Q473 608 487 611T515 614Q543 614 557 604T571 566V252ZM277 679L188 761Q187 765 187 769T187 776Q187 797 199 809T230 822Q256 822 275 800L359 703Q357 682 346 671T318 660Q305 660 296 665T277 679Z" />
<glyph unicode="&#xda;" horiz-adv-x="653" d="M326 -14Q249 -14 194 14T111 93T82 213V290H185V219Q185 147 225 110T326 72Q386 72 426 109T467 219V290H571V213Q571 145 542 94T459 14T326 -14ZM185 252H82V606Q89 608 102 611T130 614Q159 614 172 604T185
566V252ZM571 252H467V606Q473 608 487 611T515 614Q543 614 557 604T571 566V252ZM305 732L402 826Q429 825 443 813T457 782Q457 767 451 756T427 732L338 660Q315 662 302 672T289 697Q289 708 293 716T305 732Z" />
<glyph unicode="&#xdb;" horiz-adv-x="653" d="M326 -14Q249 -14 194 14T111 93T82 213V290H185V219Q185 147 225 110T326 72Q386 72 426 109T467 219V290H571V213Q571 145 542 94T459 14T326 -14ZM185 252H82V606Q89 608 102 611T130 614Q159 614 172 604T185
566V252ZM571 252H467V606Q473 608 487 611T515 614Q543 614 557 604T571 566V252ZM331 747Q313 729 290 705T238 657Q218 658 205 669T191 697Q191 711 199 721T222 745L274 795Q304 822 332 822Q351 822 364 815T392 792L474 702Q474 682 462 671T431 659Q418
659 407 666T379 693L331 747Z" />
<glyph unicode="&#xdc;" horiz-adv-x="653" d="M326 -14Q249 -14 194 14T111 93T82 213V290H185V219Q185 147 225 110T326 72Q386 72 426 109T467 219V290H571V213Q571 145 542 94T459 14T326 -14ZM185 252H82V606Q89 608 102 611T130 614Q159 614 172 604T185
566V252ZM571 252H467V606Q473 608 487 611T515 614Q543 614 557 604T571 566V252ZM291 734Q291 711 275 695T233 678Q208 678 192 694T176 734Q176 757 192 773T233 790Q259 790 275 774T291 734ZM474 734Q474 711 458 695T416 678Q392 678 376 694T359 734Q359
757 375 773T416 790Q441 790 457 774T474 734Z" />
<glyph unicode="&#xdd;" horiz-adv-x="556" d="M329 211H238Q210 252 180 299T120 395T64 491T17 577Q23 590 37 601T72 613Q96 613 110 602T137 564Q147 547 162 521T193 465T227 404T258 350T281 309H285Q317 364 342 412T392 507T440 603Q449 608 461 610T483
613Q506 613 519 602T532 569Q532 559 519 530T479 454T416 347T329 211ZM232 255H334V2Q328 0 315 -3T287 -6Q258 -6 245 5T232 42V255ZM250 732L347 826Q374 825 388 813T402 782Q402 767 396 756T372 732L283 660Q260 662 247 672T234 697Q234 708 238 716T250
732Z" />
<glyph unicode="&#xde;" horiz-adv-x="575" d="M185 193V418H281Q349 418 387 391T425 305Q425 248 387 221T281 193H185ZM82 503V108H300Q415 108 472 162T529 305Q529 397 472 450T300 503H82ZM185 163H82V41Q82 17 96 6T139 -6Q153 -6 166 -3T185 1V163ZM82
446H185V567Q185 592 172 603T130 614Q116 614 103 612T82 607V446Z" />
<glyph unicode="&#xdf;" horiz-adv-x="588" d="M175 285H74V470Q74 536 101 581T176 649T282 672Q343 672 390 649T465 578T493 462Q493 425 458 410L417 392Q394 381 384 370T374 340Q374 322 385 310T423 280Q465 257 493 236T535 188T549 124Q549 54 501 19T378
-17Q320 -17 287 1T253 48Q253 63 260 76T281 95Q299 82 321 73T373 64Q405 64 425 80T446 124Q446 149 431 166T372 207Q323 234 297 264T270 341Q270 382 292 410T358 455L392 470Q392 520 362 554T282 588Q239 588 207 560T175 469V285ZM74 355H175V-1Q169 -3
157 -5T130 -8Q102 -8 88 3T74 39V355Z" />
<glyph unicode="&#xe0;" horiz-adv-x="510" d="M245 -14Q148 -14 94 23T39 134Q39 200 82 235T204 278L344 292V315Q344 360 315 380T236 401Q196 401 159 390T92 364Q83 372 76 383T69 407Q69 439 103 454Q130 467 166 474T242 481Q334 481 388 441T443 314V80Q443
57 433 45T406 21Q380 7 339 -3T245 -14ZM245 65Q281 65 307 72T344 87V217L232 206Q186 202 163 185T139 136Q139 103 165 84T245 65ZM211 539L116 637Q115 641 115 645T114 652Q114 673 127 685T161 698Q174 698 184 693T205 676L295 564Q293 543 281 532T253
521Q239 521 230 526T211 539Z" />
<glyph unicode="&#xe1;" horiz-adv-x="510" d="M245 -14Q148 -14 94 23T39 134Q39 200 82 235T204 278L344 292V315Q344 360 315 380T236 401Q196 401 159 390T92 364Q83 372 76 383T69 407Q69 439 103 454Q130 467 166 474T242 481Q334 481 388 441T443 314V80Q443
57 433 45T406 21Q380 7 339 -3T245 -14ZM245 65Q281 65 307 72T344 87V217L232 206Q186 202 163 185T139 136Q139 103 165 84T245 65ZM219 593L317 702Q346 702 362 688T379 656Q379 641 372 631T348 605L256 519Q232 519 217 532T202 560Q202 570 207 577T219
593Z" />
<glyph unicode="&#xe2;" horiz-adv-x="510" d="M245 -14Q148 -14 94 23T39 134Q39 200 82 235T204 278L344 292V315Q344 360 315 380T236 401Q196 401 159 390T92 364Q83 372 76 383T69 407Q69 439 103 454Q130 467 166 474T242 481Q334 481 388 441T443 314V80Q443
57 433 45T406 21Q380 7 339 -3T245 -14ZM245 65Q281 65 307 72T344 87V217L232 206Q186 202 163 185T139 136Q139 103 165 84T245 65ZM309 549L250 620Q226 592 205 570T163 523Q141 525 126 536T111 564Q111 577 118 587T139 609L193 668Q208 681 221 688T251
695Q269 695 282 688T310 664L391 567Q391 551 381 538T351 525Q338 525 329 532T309 549Z" />
<glyph unicode="&#xe3;" horiz-adv-x="510" d="M245 -14Q148 -14 94 23T39 134Q39 200 82 235T204 278L344 292V315Q344 360 315 380T236 401Q196 401 159 390T92 364Q83 372 76 383T69 407Q69 439 103 454Q130 467 166 474T242 481Q334 481 388 441T443 314V80Q443
57 433 45T406 21Q380 7 339 -3T245 -14ZM245 65Q281 65 307 72T344 87V217L232 206Q186 202 163 185T139 136Q139 103 165 84T245 65ZM171 666Q199 666 222 658T266 642T303 633Q322 633 331 644T345 671H350Q372 671 388 659T404 623Q404 591 382 573T325 555Q296
555 272 563T227 580T191 588Q172 588 163 577T150 550H145Q123 550 107 562T91 598Q91 621 102 635T132 658T171 666Z" />
<glyph unicode="&#xe4;" horiz-adv-x="510" d="M245 -14Q148 -14 94 23T39 134Q39 200 82 235T204 278L344 292V315Q344 360 315 380T236 401Q196 401 159 390T92 364Q83 372 76 383T69 407Q69 439 103 454Q130 467 166 474T242 481Q334 481 388 441T443 314V80Q443
57 433 45T406 21Q380 7 339 -3T245 -14ZM245 65Q281 65 307 72T344 87V217L232 206Q186 202 163 185T139 136Q139 103 165 84T245 65ZM221 864Q221 841 205 825T163 808Q138 808 122 824T106 864Q106 887 122 903T163 920Q189 920 205 904T221 864ZM404 864Q404
841 388 825T346 808Q322 808 306 824T289 864Q289 887 305 903T346 920Q371 920 387 904T404 864Z" />
<glyph unicode="&#xe5;" horiz-adv-x="510" d="M245 -14Q148 -14 94 23T39 134Q39 200 82 235T204 278L344 292V315Q344 360 315 380T236 401Q196 401 159 390T92 364Q83 372 76 383T69 407Q69 439 103 454Q130 467 166 474T242 481Q334 481 388 441T443 314V80Q443
57 433 45T406 21Q380 7 339 -3T245 -14ZM245 65Q281 65 307 72T344 87V217L232 206Q186 202 163 185T139 136Q139 103 165 84T245 65ZM144 619Q144 660 173 688T255 716Q309 716 338 688T367 619Q367 578 338 550T255 522Q203 522 174 550T144 619ZM213 619Q213
598 225 587T255 576Q274 576 286 587T299 619Q299 639 287 650T255 662Q237 662 225 651T213 619Z" />
<glyph unicode="&#xe6;" horiz-adv-x="816" d="M591 -14Q482 -14 422 46T359 208Q359 213 355 222T351 238Q351 317 378 371T454 453T563 481Q627 481 675 455T750 382T777 274Q777 250 765 239T731 224L401 177L396 251L682 292Q677 339 648 370T563 402Q505
402 468 362T431 247L432 211Q439 139 482 103T596 67Q638 67 673 80T730 109Q742 101 749 90T757 64Q757 42 735 24T676 -4T591 -14ZM245 65Q281 65 307 72T344 87V217L232 206Q186 202 163 185T139 136Q139 103 165 84T245 65ZM244 -14Q147 -14 93 23T39 134Q39
200 82 235T204 278L344 292V315Q344 360 315 380T236 401Q196 401 159 390T92 364Q83 372 76 383T69 407Q69 439 103 454Q130 467 166 474T242 481Q329 481 376 440T424 314V76Q424 53 413 38T386 15Q362 3 329 -5T244 -14Z" />
<glyph unicode="&#xe7;" horiz-adv-x="481" d="M298 398Q234 398 191 356T148 233Q148 153 189 111T297 69Q337 69 364 79T411 103Q424 95 431 85T439 58Q439 28 398 8T293 -13Q220 -13 164 14T77 95T45 233Q45 315 78 370T167 453T290 481Q354 481 394 459T434
406Q434 393 427 382T408 365Q387 378 362 388T298 398ZM244 3L304 22Q334 2 346 -25T359 -85Q359 -133 329 -162T248 -192Q219 -192 203 -180T187 -146Q187 -131 192 -121H206Q241 -121 256 -106T272 -65Q272 -49 266 -31T244 3Z" />
<glyph unicode="&#xe8;" horiz-adv-x="526" d="M111 177L107 251L392 292Q388 339 358 370T273 402Q216 402 179 362T141 247L143 211Q150 139 193 103T308 67Q350 67 384 80T440 109Q452 101 459 90T467 64Q467 42 445 24T386 -4T302 -14Q224 -14 167 14T77 99T45
238Q45 297 62 342T111 418T184 465T274 481Q337 481 385 455T460 382T488 274Q488 250 476 239T442 224L111 177ZM230 539L135 637Q134 641 134 645T133 652Q133 673 146 685T180 698Q193 698 203 693T224 676L314 564Q312 543 300 532T272 521Q258 521 249 526T230
539Z" />
<glyph unicode="&#xe9;" horiz-adv-x="526" d="M111 177L107 251L392 292Q388 339 358 370T273 402Q216 402 179 362T141 247L143 211Q150 139 193 103T308 67Q350 67 384 80T440 109Q452 101 459 90T467 64Q467 42 445 24T386 -4T302 -14Q224 -14 167 14T77 99T45
238Q45 297 62 342T111 418T184 465T274 481Q337 481 385 455T460 382T488 274Q488 250 476 239T442 224L111 177ZM252 593L350 702Q379 702 395 688T412 656Q412 641 405 631T381 605L289 519Q265 519 250 532T235 560Q235 570 240 577T252 593Z" />
<glyph unicode="&#xea;" horiz-adv-x="526" d="M111 177L107 251L392 292Q388 339 358 370T273 402Q216 402 179 362T141 247L143 211Q150 139 193 103T308 67Q350 67 384 80T440 109Q452 101 459 90T467 64Q467 42 445 24T386 -4T302 -14Q224 -14 167 14T77 99T45
238Q45 297 62 342T111 418T184 465T274 481Q337 481 385 455T460 382T488 274Q488 250 476 239T442 224L111 177ZM334 549L275 620Q251 592 230 570T188 523Q166 525 151 536T136 564Q136 577 143 587T164 609L218 668Q233 681 246 688T276 695Q294 695 307 688T335
664L416 567Q416 551 406 538T376 525Q363 525 354 532T334 549Z" />
<glyph unicode="&#xeb;" horiz-adv-x="526" d="M111 177L107 251L392 292Q388 339 358 370T273 402Q216 402 179 362T141 247L143 211Q150 139 193 103T308 67Q350 67 384 80T440 109Q452 101 459 90T467 64Q467 42 445 24T386 -4T302 -14Q224 -14 167 14T77 99T45
238Q45 297 62 342T111 418T184 465T274 481Q337 481 385 455T460 382T488 274Q488 250 476 239T442 224L111 177ZM236 864Q236 841 220 825T178 808Q153 808 137 824T121 864Q121 887 137 903T178 920Q204 920 220 904T236 864ZM419 864Q419 841 403 825T361 808Q337
808 321 824T304 864Q304 887 320 903T361 920Q386 920 402 904T419 864Z" />
<glyph unicode="&#xec;" horiz-adv-x="251" d="M74 323H176V-1Q170 -3 158 -5T131 -8Q103 -8 89 3T74 39V323ZM176 273H74V464Q81 466 93 468T120 470Q148 470 162 459T176 423V273ZM82 539L-13 637Q-14 641 -14 645T-15 652Q-15 673 -2 685T31 698Q45 698 55
693T76 676L165 564Q164 543 152 532T123 521Q110 521 101 526T82 539Z" />
<glyph unicode="&#xed;" horiz-adv-x="251" d="M74 323H176V-1Q170 -3 158 -5T131 -8Q103 -8 89 3T74 39V323ZM176 273H74V464Q81 466 93 468T120 470Q148 470 162 459T176 423V273ZM101 593L199 702Q228 702 244 688T261 656Q261 641 254 631T231 605L139 519Q114
519 100 532T85 560Q85 570 89 577T101 593Z" />
<glyph unicode="&#xee;" horiz-adv-x="251" d="M74 323H176V-1Q170 -3 158 -5T131 -8Q103 -8 89 3T74 39V323ZM176 273H74V464Q81 466 93 468T120 470Q148 470 162 459T176 423V273ZM186 549L127 620Q103 592 82 570T41 523Q18 525 4 536T-11 564Q-11 577 -4 587T16
609L70 668Q85 681 98 688T128 695Q146 695 159 688T187 664L268 567Q268 551 259 538T228 525Q215 525 206 532T186 549Z" />
<glyph unicode="&#xef;" horiz-adv-x="251" d="M74 323H176V-1Q170 -3 158 -5T131 -8Q103 -8 89 3T74 39V323ZM176 273H74V464Q81 466 93 468T120 470Q148 470 162 459T176 423V273ZM91 608Q91 585 75 569T33 552Q8 552 -8 568T-24 608Q-24 631 -8 647T33 664Q59
664 75 648T91 608ZM274 608Q274 585 258 569T216 552Q192 552 175 568T158 608Q158 631 175 647T216 664Q241 664 257 648T274 608Z" />
<glyph unicode="&#xf0;" horiz-adv-x="548" d="M366 543L334 531L173 473Q162 480 154 492T145 519Q145 543 172 553L259 586L303 601L429 651Q440 643 448 632T457 605Q457 589 450 581T429 568L366 543ZM418 365L404 287Q383 321 351 341T279 361Q214 361 181
322T148 217Q148 149 182 109T277 68Q339 68 369 110T399 222Q399 255 397 281T388 334Q386 349 386 356T386 369T381 385Q362 429 339 466T279 532Q270 540 264 547T248 561Q222 580 194 592T134 613Q135 639 148 655T186 671Q219 671 259 653T337 603Q344 597
347 595T358 585Q397 547 429 494T482 378T503 244Q503 162 477 105T400 17T276 -14Q170 -14 108 47T45 217Q45 294 76 343T156 417T260 441Q315 441 354 420T418 365Z" />
<glyph unicode="&#xf1;" horiz-adv-x="565" d="M496 307V207H395V303Q395 353 367 376T290 399Q255 399 227 391T179 370V207H78V372Q78 395 87 409T117 437Q145 454 190 467T291 481Q387 481 441 438T496 307ZM78 259H179V2Q172 0 160 -3T133 -6Q105 -6 92 4T78
41V259ZM395 259H496V2Q490 0 477 -3T450 -6Q421 -6 408 4T395 41V259ZM203 666Q231 666 254 658T298 642T335 633Q354 633 363 644T377 671H382Q404 671 420 659T436 623Q436 591 414 573T357 555Q328 555 304 563T259 580T223 588Q204 588 195 577T182 550H177Q155
550 139 562T123 598Q123 621 134 635T164 658T203 666Z" />
<glyph unicode="&#xf2;" horiz-adv-x="561" d="M516 234Q516 158 487 103T405 17T281 -14Q209 -14 156 16T74 102T45 234Q45 310 74 365T157 450T281 481Q351 481 404 451T486 365T516 234ZM281 399Q220 399 184 355T148 234Q148 155 183 112T281 68Q343 68 377
112T412 234Q412 311 377 355T281 399ZM246 539L151 637Q150 641 150 645T149 652Q149 673 162 685T196 698Q209 698 219 693T240 676L330 564Q328 543 316 532T288 521Q274 521 265 526T246 539Z" />
<glyph unicode="&#xf3;" horiz-adv-x="561" d="M516 234Q516 158 487 103T405 17T281 -14Q209 -14 156 16T74 102T45 234Q45 310 74 365T157 450T281 481Q351 481 404 451T486 365T516 234ZM281 399Q220 399 184 355T148 234Q148 155 183 112T281 68Q343 68 377
112T412 234Q412 311 377 355T281 399ZM260 593L358 702Q387 702 403 688T420 656Q420 641 413 631T389 605L297 519Q273 519 258 532T243 560Q243 570 248 577T260 593Z" />
<glyph unicode="&#xf4;" horiz-adv-x="561" d="M516 234Q516 158 487 103T405 17T281 -14Q209 -14 156 16T74 102T45 234Q45 310 74 365T157 450T281 481Q351 481 404 451T486 365T516 234ZM281 399Q220 399 184 355T148 234Q148 155 183 112T281 68Q343 68 377
112T412 234Q412 311 377 355T281 399ZM339 549L280 620Q256 592 235 570T193 523Q171 525 156 536T141 564Q141 577 148 587T169 609L223 668Q238 681 251 688T281 695Q299 695 312 688T340 664L421 567Q421 551 411 538T381 525Q368 525 359 532T339 549Z" />
<glyph unicode="&#xf5;" horiz-adv-x="561" d="M516 234Q516 158 487 103T405 17T281 -14Q209 -14 156 16T74 102T45 234Q45 310 74 365T157 450T281 481Q351 481 404 451T486 365T516 234ZM281 399Q220 399 184 355T148 234Q148 155 183 112T281 68Q343 68 377
112T412 234Q412 311 377 355T281 399ZM206 666Q234 666 257 658T301 642T338 633Q357 633 366 644T380 671H385Q407 671 423 659T439 623Q439 591 417 573T360 555Q331 555 307 563T262 580T226 588Q207 588 198 577T185 550H180Q158 550 142 562T126 598Q126
621 137 635T167 658T206 666Z" />
<glyph unicode="&#xf6;" horiz-adv-x="561" d="M516 234Q516 158 487 103T405 17T281 -14Q209 -14 156 16T74 102T45 234Q45 310 74 365T157 450T281 481Q351 481 404 451T486 365T516 234ZM281 399Q220 399 184 355T148 234Q148 155 183 112T281 68Q343 68 377
112T412 234Q412 311 377 355T281 399ZM247 864Q247 841 231 825T189 808Q164 808 148 824T132 864Q132 887 148 903T189 920Q215 920 231 904T247 864ZM430 864Q430 841 414 825T372 808Q348 808 332 824T315 864Q315 887 331 903T372 920Q397 920 413 904T430
864Z" />
<glyph unicode="&#xf7;" horiz-adv-x="523" d="M436 256H55Q51 264 49 273T46 295Q46 317 57 327T87 338H467Q471 331 474 321T477 298Q477 277 466 267T436 256ZM204 131Q204 157 220 174T264 191Q290 191 306 174T322 131Q322 107 306 90T264 72Q237 72 221
89T204 131ZM204 459Q204 484 220 501T264 518Q290 518 306 501T322 459Q322 433 306 417T264 400Q237 400 221 416T204 459Z" />
<glyph unicode="&#xf8;" horiz-adv-x="561" d="M429 395L379 445L434 529Q448 529 460 524T479 511T487 490Q487 482 481 473L429 395ZM189 32L126 -61Q111 -61 99 -56T79 -42T72 -23Q72 -13 78 -4L125 63L189 32ZM205 57L165 118L345 396L406 368L205 57ZM516
234Q516 158 487 103T405 17T281 -14Q209 -14 156 16T74 102T45 234Q45 310 74 365T157 450T281 481Q351 481 404 451T486 365T516 234ZM281 400Q220 400 182 356T144 234Q144 155 181 112T281 68Q343 68 380 111T417 234Q417 312 380 356T281 400Z" />
<glyph unicode="&#xf9;" horiz-adv-x="558" d="M70 175V260H171V178Q171 119 201 94T287 68Q323 68 348 75T387 91V260H488V87Q488 65 482 51T454 25Q429 10 386 -2T286 -14Q219 -14 170 6T96 68T70 175ZM488 210H387V466Q393 468 406 470T433 473Q462 473 475
463T488 426V210ZM171 210H70V466Q76 468 89 470T117 473Q144 473 157 463T171 426V210ZM232 539L137 637Q136 641 136 645T135 652Q135 673 148 685T182 698Q195 698 205 693T226 676L316 564Q314 543 302 532T274 521Q260 521 251 526T232 539Z" />
<glyph unicode="&#xfa;" horiz-adv-x="558" d="M70 175V260H171V178Q171 119 201 94T287 68Q323 68 348 75T387 91V260H488V87Q488 65 482 51T454 25Q429 10 386 -2T286 -14Q219 -14 170 6T96 68T70 175ZM488 210H387V466Q393 468 406 470T433 473Q462 473 475
463T488 426V210ZM171 210H70V466Q76 468 89 470T117 473Q144 473 157 463T171 426V210ZM258 593L356 702Q385 702 401 688T418 656Q418 641 411 631T387 605L295 519Q271 519 256 532T241 560Q241 570 246 577T258 593Z" />
<glyph unicode="&#xfb;" horiz-adv-x="558" d="M70 175V260H171V178Q171 119 201 94T287 68Q323 68 348 75T387 91V260H488V87Q488 65 482 51T454 25Q429 10 386 -2T286 -14Q219 -14 170 6T96 68T70 175ZM488 210H387V466Q393 468 406 470T433 473Q462 473 475
463T488 426V210ZM171 210H70V466Q76 468 89 470T117 473Q144 473 157 463T171 426V210ZM340 549L281 620Q257 592 236 570T194 523Q172 525 157 536T142 564Q142 577 149 587T170 609L224 668Q239 681 252 688T282 695Q300 695 313 688T341 664L422 567Q422 551
412 538T382 525Q369 525 360 532T340 549Z" />
<glyph unicode="&#xfc;" horiz-adv-x="558" d="M70 175V260H171V178Q171 119 201 94T287 68Q323 68 348 75T387 91V260H488V87Q488 65 482 51T454 25Q429 10 386 -2T286 -14Q219 -14 170 6T96 68T70 175ZM488 210H387V466Q393 468 406 470T433 473Q462 473 475
463T488 426V210ZM171 210H70V466Q76 468 89 470T117 473Q144 473 157 463T171 426V210ZM243 864Q243 841 227 825T185 808Q160 808 144 824T128 864Q128 887 144 903T185 920Q211 920 227 904T243 864ZM426 864Q426 841 410 825T368 808Q344 808 328 824T311 864Q311
887 327 903T368 920Q393 920 409 904T426 864Z" />
<glyph unicode="&#xfd;" horiz-adv-x="504" d="M159 108Q143 140 121 192T74 311T28 452Q36 463 50 470T81 477Q103 477 116 467T138 431Q166 350 196 271T261 107H265Q285 150 306 211T346 339T378 466Q388 471 398 474T422 477Q443 477 457 467T472 435Q472
415 463 377T439 289T404 187T362 82T316 -10Q268 -98 228 -144T151 -190Q124 -190 108 -175T89 -138Q110 -119 136 -90T186 -28T227 36Q210 41 195 55T159 108ZM226 593L324 702Q353 702 369 688T386 656Q386 641 379 631T355 605L263 519Q239 519 224 532T209
560Q209 570 214 577T226 593Z" />
<glyph unicode="&#xfe;" horiz-adv-x="561" d="M281 -13Q240 -13 205 -2T151 23V113Q170 96 198 83T267 69Q332 69 371 109T410 235Q410 296 391 331T339 383T268 399Q236 399 210 391T162 368L141 444Q161 456 197 468T279 481Q344 481 396 456T480 376T512 235Q512
153 483 98T401 15T281 -13ZM127 -184Q99 -184 86 -174T72 -137V81L173 80V-177Q166 -179 154 -181T127 -184ZM72 53V650Q78 652 91 654T118 656Q146 656 159 645T173 610V53H72Z" />
<glyph unicode="&#xff;" horiz-adv-x="504" d="M159 108Q143 140 121 192T74 311T28 452Q36 463 50 470T81 477Q103 477 116 467T138 431Q166 350 196 271T261 107H265Q285 150 306 211T346 339T378 466Q388 471 398 474T422 477Q443 477 457 467T472 435Q472
415 463 377T439 289T404 187T362 82T316 -10Q268 -98 228 -144T151 -190Q124 -190 108 -175T89 -138Q110 -119 136 -90T186 -28T227 36Q210 41 195 55T159 108ZM217 864Q217 841 201 825T159 808Q134 808 118 824T102 864Q102 887 118 903T159 920Q185 920 201
904T217 864ZM400 864Q400 841 384 825T342 808Q318 808 302 824T285 864Q285 887 301 903T342 920Q367 920 383 904T400 864Z" />
<glyph unicode="&#x2013;" horiz-adv-x="536" d="M449 218H55Q52 226 49 236T46 258Q46 280 57 290T87 301H481Q484 294 487 284T490 261Q490 240 480 229T449 218Z" />
<glyph unicode="&#x2014;" horiz-adv-x="769" d="M680 220H58Q54 228 51 238T48 261Q48 282 59 292T89 303H712Q715 296 718 286T721 264Q721 243 710 232T680 220Z" />
<glyph unicode="&#x2018;" horiz-adv-x="151" d="M56 601Q63 615 73 622T99 629Q110 629 120 626T139 617Q135 589 130 552T120 477T114 408Q104 403 92 401T67 398Q45 398 31 408T17 442Q17 464 23 495T38 555T56 601Z" />
<glyph unicode="&#x2019;" horiz-adv-x="149" d="M96 426Q88 411 79 405T53 398Q41 398 31 401T13 409Q17 438 22 475T31 549T37 618Q48 622 60 625T85 628Q106 628 120 618T134 583Q134 562 128 531T113 471T96 426Z" />
<glyph unicode="&#x201a;" horiz-adv-x="154" d="M96 -114Q88 -129 79 -135T53 -142Q41 -142 31 -139T13 -131Q17 -102 22 -65T31 9T37 78Q48 82 60 85T85 88Q106 88 120 78T134 43Q134 22 128 -9T113 -69T96 -114Z" />
<glyph unicode="&#x201c;" horiz-adv-x="299" d="M207 601Q214 615 223 622T249 629Q260 629 269 626T286 618Q282 589 277 552T268 477T262 408Q251 403 240 401T216 398Q194 398 182 408T169 442Q169 464 175 495T190 555T207 601ZM55 601Q62 615 71 622T97
629Q107 629 116 626T134 618Q130 589 125 552T115 477T109 408Q99 403 88 401T64 398Q42 398 30 408T17 442Q17 464 23 495T38 555T55 601Z" />
<glyph unicode="&#x201d;" horiz-adv-x="299" d="M92 426Q85 411 76 405T51 398Q40 398 31 401T13 409Q17 438 22 475T31 549T37 618Q48 622 59 625T83 628Q104 628 117 618T130 583Q130 562 124 531T109 471T92 426ZM244 426Q237 411 228 405T203 398Q191 398
182 401T166 409Q170 438 175 475T184 549T190 618Q200 622 211 625T235 628Q257 628 269 618T282 583Q282 562 276 531T261 471T244 426Z" />
<glyph unicode="&#x201e;" horiz-adv-x="300" d="M92 -114Q85 -129 76 -135T51 -142Q40 -142 31 -139T13 -131Q17 -102 22 -65T31 9T37 78Q48 82 59 85T83 88Q104 88 117 78T130 43Q130 22 124 -9T109 -69T92 -114ZM244 -114Q237 -129 228 -135T203 -142Q191 -142
182 -139T166 -131Q170 -102 175 -65T184 9T190 78Q200 82 211 85T235 88Q257 88 269 78T282 43Q282 22 276 -9T261 -69T244 -114Z" />
<glyph unicode="&#x2022;" horiz-adv-x="275" d="M46 282Q46 319 71 346T137 374Q178 374 203 347T228 282Q228 245 203 218T137 191Q96 191 71 218T46 282Z" />
<glyph unicode="&#x2039;" horiz-adv-x="290" d="M117 224L252 85Q252 67 240 52T204 37Q189 37 177 46T152 67L45 184Q40 192 37 202T34 224Q34 244 38 255T52 273L197 422Q221 416 233 404T245 376Q245 362 238 351T214 322L117 224Z" />
<glyph unicode="&#x203a;" horiz-adv-x="290" d="M172 234L38 374Q38 392 50 407T85 422Q101 422 113 413T137 392L245 274Q250 267 253 257T256 235Q256 215 251 204T237 185L92 37Q69 43 57 54T45 82Q45 97 52 108T76 137L172 234Z" />
</font>
</defs>
</svg>
